<?xml version="1.0" encoding="utf-8"?>
<!-- Generator: Adobe Illustrator 16.0.0, SVG Export Plug-In . SVG Version: 6.00 Build 0)  -->
<!DOCTYPE svg PUBLIC "-//W3C//DTD SVG 1.1//EN" "http://www.w3.org/Graphics/SVG/1.1/DTD/svg11.dtd">
<svg version="1.1" id="Layer_1" xmlns="http://www.w3.org/2000/svg" xmlns:xlink="http://www.w3.org/1999/xlink" x="0px" y="0px"
	 width="117.787px" height="80.795px" viewBox="1.137 -3.995 117.787 80.795" enable-background="new 1.137 -3.995 117.787 80.795"
	 xml:space="preserve">
<g>
	<path d="M118.924,52.805c0,6.665-2.349,12.337-7.034,17c-4.692,4.665-10.387,6.995-17.084,6.995h-46.97
		c-6.702,0-12.392-2.33-17.081-6.995c-4.693-4.663-7.037-10.335-7.037-17V24.801c0-6.668,2.344-12.333,7.037-16.999
		C35.444,3.131,41.133,0.8,47.836,0.8h66.433v15.16H47.743c-2.473,0-4.556,0.857-6.251,2.581c-1.694,1.717-2.539,3.804-2.539,6.261
		v28.004c0,2.454,0.864,4.543,2.592,6.258c1.732,1.723,3.836,2.581,6.306,2.581h47.042c2.473,0,4.558-0.858,6.253-2.581
		c1.695-1.716,2.544-3.804,2.544-6.258v-4.633c0-2.458-0.848-4.544-2.544-6.263c-1.695-1.72-3.779-2.578-6.254-2.578H47.836V24.169
		h46.97c6.698,0,12.393,2.351,17.085,7.051c4.686,4.706,7.034,10.354,7.034,16.952L118.924,52.805L118.924,52.805z"/>
	<path fill="#FF0000" d="M1.137,10.976c0-4.473,3.643-8.1,8.142-8.1c4.493,0,8.142,3.627,8.142,8.1c0,4.476-3.648,8.105-8.142,8.105
		C4.781,19.081,1.137,15.452,1.137,10.976"/>
	<path fill="#00FF00" d="M1.137,38.461c0-4.473,3.643-8.102,8.142-8.102c4.493,0,8.142,3.628,8.142,8.102
		c0,4.473-3.648,8.105-8.142,8.105C4.781,46.567,1.137,42.934,1.137,38.461"/>
	<path fill="#0000FF" d="M1.137,65.948c0-4.478,3.643-8.106,8.142-8.106c4.493,0,8.142,3.629,8.142,8.106
		c0,4.473-3.648,8.104-8.142,8.104C4.781,74.052,1.137,70.42,1.137,65.948"/>
</g>
</svg>
