<svg id="Layer_1" data-name="Layer 1" xmlns="http://www.w3.org/2000/svg" width="542.78" height="42" viewBox="0 0 542.78 42">
  <defs>
    <style>
      .cls-1 {
        font-size: 30px;
        font-family: Roboto-Thin, Roboto;
        font-weight: 200;
      }

      .cls-1, .cls-2 {
        fill: #008f9f;
      }

      .cls-3, .cls-4 {
        fill: #fff;
      }

      .cls-4 {
        stroke: #008f9f;
        stroke-miterlimit: 10;
      }

      .cls-5 {
        fill: #99d2d8;
      }

      .cls-6 {
        fill: none;
      }
    </style>
  </defs>
  <text class="cls-1" transform="translate(268.1 31.29)">•</text>
  <g>
    <g>
      <path class="cls-2" d="M904,702a13.46,13.46,0,0,1-13.56,13.36H864A13.47,13.47,0,0,1,850.4,702V686.74A13.48,13.48,0,0,1,864,673.37h26.42A13.47,13.47,0,0,1,904,686.74Z" transform="translate(-528.51 -673.37)"/>
      <path id="f" class="cls-3" d="M882.54,715.37V698.73h5.59l.83-6.49h-6.42V688.1c0-1.88.52-3.16,3.21-3.16h3.44v-5.8a46.11,46.11,0,0,0-5-.25c-4.95,0-8.34,3-8.34,8.57v4.78h-5.6v6.49h5.6v16.64Z" transform="translate(-528.51 -673.37)"/>
    </g>
    <g>
      <path class="cls-2" d="M987.63,702a13.47,13.47,0,0,1-13.57,13.36H947.64A13.46,13.46,0,0,1,934.08,702V686.74a13.47,13.47,0,0,1,13.56-13.37h26.42a13.48,13.48,0,0,1,13.57,13.37Z" transform="translate(-528.51 -673.37)"/>
      <g>
        <path class="cls-3" d="M962.5,691.56v-.06l0,.06Z" transform="translate(-528.51 -673.37)"/>
        <rect class="cls-3" x="418.6" y="15.47" width="6.23" height="18.75"/>
        <path class="cls-3" d="M950.23,686.29h0a3.25,3.25,0,1,1,3.57-3.25A3.24,3.24,0,0,1,950.19,686.29Z" transform="translate(-528.51 -673.37)"/>
        <path class="cls-3" d="M975.82,707.6h-6.23v-10c0-2.52-.9-4.24-3.16-4.24a3.43,3.43,0,0,0-3.2,2.28,4.38,4.38,0,0,0-.2,1.52V707.6H956.8s.08-17,0-18.75H963v2.65a6.19,6.19,0,0,1,5.62-3.1c4.1,0,7.17,2.68,7.17,8.44V707.6Z" transform="translate(-528.51 -673.37)"/>
      </g>
    </g>
    <g>
      <path class="cls-2" d="M1071.3,702a13.47,13.47,0,0,1-13.55,13.38h-26.46A13.47,13.47,0,0,1,1017.75,702V686.76a13.48,13.48,0,0,1,13.54-13.39h26.41a13.49,13.49,0,0,1,13.6,13.39Z" transform="translate(-528.51 -673.37)"/>
      <g>
        <path class="cls-3" d="M1044.52,680.62c4.47,0,5,0,6.78.1a9.18,9.18,0,0,1,3.09.58,5.47,5.47,0,0,1,1.95,1.26,5.66,5.66,0,0,1,1.26,1.94,9.07,9.07,0,0,1,.57,3.1c.11,1.79.11,2.31.11,6.77s0,5-.11,6.78a9.12,9.12,0,0,1-.57,3.1,5.54,5.54,0,0,1-3.21,3.2,9,9,0,0,1-3.09.57c-1.79.11-2.31.11-6.78.11s-5,0-6.77-.11a9.07,9.07,0,0,1-3.1-.57,5.66,5.66,0,0,1-1.94-1.26,5.47,5.47,0,0,1-1.26-2,9.18,9.18,0,0,1-.58-3.09c-.1-1.79-.1-2.31-.1-6.78s0-5,.1-6.77a9.25,9.25,0,0,1,.58-3.1,5.56,5.56,0,0,1,3.2-3.2,9.25,9.25,0,0,1,3.1-.58c1.73-.1,2.31-.1,6.77-.1m0-3c-4.56,0-5.14,0-6.93.11a13,13,0,0,0-4.09.79,8.61,8.61,0,0,0-4.94,4.93,12.73,12.73,0,0,0-.78,4.1c-.06,1.73-.06,2.31-.06,6.87s0,5.15.11,6.93a13,13,0,0,0,.79,4.1,8.56,8.56,0,0,0,4.93,4.93,12.7,12.7,0,0,0,4.1.79c1.73,0,2.31,0,6.87,0s5.15,0,6.93-.1a13,13,0,0,0,4.1-.79,8.18,8.18,0,0,0,3-1.94,8.06,8.06,0,0,0,1.94-3,12.7,12.7,0,0,0,.79-4.1c0-1.73,0-2.31,0-6.88s0-5.14-.1-6.93a13.27,13.27,0,0,0-.79-4.09,8.61,8.61,0,0,0-4.93-4.94,12.73,12.73,0,0,0-4.1-.78c-1.73-.06-2.31-.06-6.88-.06" transform="translate(-528.51 -673.37)"/>
        <path class="cls-3" d="M1044.52,685.76a8.61,8.61,0,1,0,8.61,8.61,8.62,8.62,0,0,0-8.61-8.61m0,14.23a5.62,5.62,0,1,1,5.62-5.62,5.62,5.62,0,0,1-5.62,5.62" transform="translate(-528.51 -673.37)"/>
        <path class="cls-3" d="M1055.5,685.4a2,2,0,1,1-2-2,2,2,0,0,1,2,2" transform="translate(-528.51 -673.37)"/>
      </g>
    </g>
  </g>
  <g>
    <g>
      <path class="cls-2" d="M749.4,702a13.45,13.45,0,0,1-13.56,13.36H709.42A13.45,13.45,0,0,1,695.86,702h0V686.74a13.45,13.45,0,0,1,13.56-13.36h26.42a13.45,13.45,0,0,1,13.56,13.36h0Z" transform="translate(-528.51 -673.37)"/>
      <g>
        <path class="cls-4" d="M713.7,684.23h-3.92a10.53,10.53,0,1,0,0,21h7.37a3.35,3.35,0,0,0,3.38-3.32v-6.45l5.1,8a3.86,3.86,0,0,0,7.08-2.13v-5.92l5.1,8a3.86,3.86,0,0,0,7.08-2.13V684.22h-2.63v17.21a1.22,1.22,0,0,1-2.24.69l-9.11-14.31a.46.46,0,0,0-.65-.11.47.47,0,0,0-.2.38v13.35a1.23,1.23,0,0,1-1.23,1.23,1.21,1.21,0,0,1-1-.52l-9.08-14.33a.46.46,0,0,0-.65-.07.5.5,0,0,0-.18.34v13.84a.73.73,0,0,1-.73.74h-7.4a7.9,7.9,0,0,1,0-15.8h3.93Z" transform="translate(-528.51 -673.37)"/>
        <path class="cls-4" d="M714.12,699.28a.37.37,0,0,0,.37-.37V688.08a3.86,3.86,0,0,1,7.09-2.1l5.09,8v-5.87a3.86,3.86,0,0,1,7.08-2.1l5.09,8v-9.73h2.63v17.21a.47.47,0,0,1-.47.47.45.45,0,0,1-.37-.19l-9.08-14.32a1.22,1.22,0,0,0-2.25.69v13.35a.47.47,0,0,1-.47.47.45.45,0,0,1-.37-.19l-9.09-14.32a1.23,1.23,0,0,0-1.72-.32,1.21,1.21,0,0,0-.53,1v13.46a.37.37,0,0,1-.38.37h-7a7.16,7.16,0,1,1,0-14.31h3.92v2.66h-3.92a4.52,4.52,0,0,0,0,9Z" transform="translate(-528.51 -673.37)"/>
      </g>
    </g>
    <g>
      <path class="cls-2" d="M665.73,702a13.45,13.45,0,0,1-13.56,13.36H625.75A13.46,13.46,0,0,1,612.18,702h0V686.74a13.46,13.46,0,0,1,13.57-13.36h26.42a13.45,13.45,0,0,1,13.56,13.36h0Z" transform="translate(-528.51 -673.37)"/>
      <g>
        <g>
          <path class="cls-5" d="M654.05,713.39c-.31-1.65-3.77-7-7.21-10.66a31.66,31.66,0,0,0-5.39-4.41,30,30,0,0,0,5.57-.94c2.63-.76,7.12-2.85,7-5.82,0-1.21-1-5.25-12.27-6.83h-.12a.88.88,0,0,0-.88.87.87.87,0,0,0,.66.86c4.85,1.27,7.06,2.93,7.09,4,.05,1.34-1.66,2.62-4.69,3.6-1.79.56-4,.91-9.6,1a16.13,16.13,0,0,0-1.94-.6,20.91,20.91,0,0,0-3.43-.53,37.33,37.33,0,0,1,5.5-8.38c4.6-5.41,8.14-7.19,10.41-8.08a.88.88,0,0,0,.51-1.13.89.89,0,0,0-.65-.55,10.61,10.61,0,0,0-1.69-.14,9.64,9.64,0,0,0-1.52.12c-1.58.26-3.68.92-7.27,3.88a46.07,46.07,0,0,0-7.21,8.37,32.41,32.41,0,0,0-3,5.88,12,12,0,0,1-3-1c-1.8-.87-3.09-2.13-2.93-2.89a.86.86,0,0,0-.57-1,.92.92,0,0,0-.28,0,.89.89,0,0,0-.77.48,4.56,4.56,0,0,0,1.75,5.6,14.2,14.2,0,0,0,4.73,2.28c-.91,3.31-.7,6,.62,7.93a5,5,0,0,0,4.2,2,6.2,6.2,0,0,0,1-.07c2.81-.43,6.72-2.84,9.34-5.72a28.34,28.34,0,0,1,2.82,1.64,46,46,0,0,1,5.66,4.48,72.08,72.08,0,0,1,6.06,6.54.83.83,0,0,0,.67.32.87.87,0,0,0,.88-.86.58.58,0,0,0,0-.19Zm-18-12.84c-.9.68-1.87,1.34-2.5,1.72a8.65,8.65,0,0,1-4.12,1.38,2.46,2.46,0,0,1-1.66-.5c-.59-.52-.85-1.49-.8-3a12.15,12.15,0,0,1,.21-1.89,30.13,30.13,0,0,1,4,.63A33.59,33.59,0,0,1,636,700.55Z" transform="translate(-528.51 -673.37)"/>
          <path class="cls-5" d="M640.61,680.75a4,4,0,1,0,4,4h0A4,4,0,0,0,640.61,680.75Z" transform="translate(-528.51 -673.37)"/>
        </g>
        <path class="cls-3" d="M641.83,680.73a3.11,3.11,0,1,1-3.11,3.11h0a3.11,3.11,0,0,1,3.11-3.11m0-.88a4,4,0,1,0,4,4h0A4,4,0,0,0,641.83,679.85Z" transform="translate(-528.51 -673.37)"/>
        <path class="cls-6" d="M646.34,675.64c-.26-1-2-1-3.24-.8a15.87,15.87,0,0,0-6,2.74c-4.09,3-9.7,9-12,15.54-2-.32-5.48-1.89-5.83-3.22-.2-1-.45-1.58-1.41-1.37s-1.12,2.62,0,3.9a12.17,12.17,0,0,0,6.3,3.79c-1.09,3.93-.84,8.33,2.47,9.64,3.81,1.49,8.65-1.87,11-3.93l1.6-1.39a33.17,33.17,0,0,1,7.16,4.93,70.93,70.93,0,0,1,7.1,7.4,1.16,1.16,0,0,0,1.37.4c.85-.34-.3-2.28-.3-2.28a39.83,39.83,0,0,0-4.35-6.7,38.09,38.09,0,0,0-7.77-6.82,26.63,26.63,0,0,0,6.83-1.42c3.35-1.23,5.25-2.82,5.64-4a3.54,3.54,0,0,0-.37-3.29c-1.65-2.24-4.78-3.75-8.78-4.61a4,4,0,0,0-5.52-4,13.29,13.29,0,0,1,2.83-2.15C645.07,676.91,646.55,676.45,646.34,675.64Z" transform="translate(-528.51 -673.37)"/>
        <g>
          <path class="cls-2" d="M639,699.49l0,0a33,33,0,0,1-3.74,2.68,9.33,9.33,0,0,1-4.56,1.5,3.37,3.37,0,0,1-2.24-.71c-.85-.76-1.15-2-1.09-3.68a11.46,11.46,0,0,1,.4-2.79,30.32,30.32,0,0,1,4.93.69,35.21,35.21,0,0,1,6.3,2.31l.24-.2-.19.23a29,29,0,0,1,3.52,2,44.64,44.64,0,0,1,5.78,4.57,68.76,68.76,0,0,1,6.15,6.62c-.28-1.35-3.54-6.56-7-10.23-1.39-1.47-5.12-4.68-8.09-5.74a34.19,34.19,0,0,0,8.67-1.05c3.43-1,6.46-2.63,6.39-5-.07-2-3.05-4.79-11.52-6,4.34,1.14,7.68,2.88,7.75,4.82s-2.1,3.46-5.31,4.48c-1.85.58-4.12,1-10,1.08a19.57,19.57,0,0,0-3-.85,21.86,21.86,0,0,0-3.52-.34,33.78,33.78,0,0,1,6.14-9.73c4.3-5,7.87-7.19,10.76-8.32a9.34,9.34,0,0,0-2.89,0c-1.58.25-3.56,1-6.86,3.68a45.58,45.58,0,0,0-7,8.16,31.8,31.8,0,0,0-3.2,6.32h-.14a10.55,10.55,0,0,1-3.79-1.15c-1.85-.89-3.68-2.43-3.41-3.86a3.68,3.68,0,0,0,1.49,4.51,13.07,13.07,0,0,0,5.3,2.32c-1.09,3.49-1,6.3.27,8.1a4.17,4.17,0,0,0,3.46,1.57,4.76,4.76,0,0,0,.83-.08C632.58,705,636.61,702.35,639,699.49Z" transform="translate(-528.51 -673.37)"/>
          <path class="cls-3" d="M655.32,712.51c-.31-1.66-3.77-7-7.21-10.67a31.82,31.82,0,0,0-5.4-4.41,29.35,29.35,0,0,0,5.58-1c4.68-1.32,7.11-3.33,7-5.77,0-1.2-1-5.25-12.27-6.82h-.12a.87.87,0,0,0-.87.88.9.9,0,0,0,.65.84c4.84,1.27,7,2.93,7.1,4,0,1.34-1.67,2.63-4.7,3.6-1.8.57-4,.92-9.62,1a21.94,21.94,0,0,0-3-.83,21.18,21.18,0,0,0-2.38-.29,37.21,37.21,0,0,1,5.51-8.41c4.59-5.39,8.14-7.19,10.41-8.08a.87.87,0,0,0-.15-1.67,7.9,7.9,0,0,0-1.68-.15,9.64,9.64,0,0,0-1.52.12c-1.58.26-3.68.92-7.27,3.87a46.07,46.07,0,0,0-7.21,8.37,33.45,33.45,0,0,0-3.05,5.88,11.53,11.53,0,0,1-3-1c-1.8-.86-3.09-2.13-2.93-2.88a.89.89,0,0,0-.58-1,.92.92,0,0,0-.28,0,.88.88,0,0,0-.79.49,4.55,4.55,0,0,0,1.76,5.6,14.32,14.32,0,0,0,4.72,2.27c-.89,3.32-.66,6,.64,7.94a5.06,5.06,0,0,0,4.2,2,6.22,6.22,0,0,0,1-.08c2.81-.42,6.72-2.83,9.34-5.71a24.67,24.67,0,0,1,2.82,1.64,44.56,44.56,0,0,1,5.66,4.48,71.1,71.1,0,0,1,6.09,6.54.86.86,0,0,0,.67.32.81.81,0,0,0,.37-.09A.85.85,0,0,0,655.32,712.51Zm-26.4-7a4.19,4.19,0,0,1-3.45-1.58c-1.26-1.81-1.37-4.61-.28-8.1a12.94,12.94,0,0,1-5.3-2.32,3.67,3.67,0,0,1-1.48-4.5c-.29,1.42,1.57,3,3.4,3.85a10.76,10.76,0,0,0,3.8,1.16h.13a32.7,32.7,0,0,1,3.2-6.33,45.23,45.23,0,0,1,7-8.16c3.3-2.71,5.28-3.43,6.85-3.67a8.82,8.82,0,0,1,2.9,0c-2.9,1.13-6.46,3.27-10.77,8.32a33.82,33.82,0,0,0-6.13,9.74,20.65,20.65,0,0,1,3.51.33,21,21,0,0,1,3,.86c5.91-.13,8.17-.53,10-1.09,3.23-1,5.37-2.53,5.31-4.47s-3.41-3.68-7.75-4.83c8.47,1.21,11.44,4,11.51,6,.08,2.35-3,4-6.38,4.95a33.31,33.31,0,0,1-8.67,1.05c3,1,6.7,4.28,8.09,5.75,3.45,3.67,6.73,8.87,7,10.23a69.08,69.08,0,0,0-6.17-6.63,45.42,45.42,0,0,0-5.77-4.57,28.38,28.38,0,0,0-3.52-2c-2.39,2.86-6.43,5.5-9.25,5.91A4.67,4.67,0,0,1,628.92,705.48Z" transform="translate(-528.51 -673.37)"/>
          <path class="cls-3" d="M627.73,696.44a11.46,11.46,0,0,0-.4,2.79c-.06,1.66.24,2.95,1.09,3.68a3.42,3.42,0,0,0,2.24.7,9.23,9.23,0,0,0,4.56-1.49,32.87,32.87,0,0,0,3.74-2.66,35.21,35.21,0,0,0-6.3-2.31A30.35,30.35,0,0,0,627.73,696.44Zm2.93,6.33a2.49,2.49,0,0,1-1.68-.52c-.58-.53-.85-1.5-.8-3a11.88,11.88,0,0,1,.21-1.89,27.2,27.2,0,0,1,4,.63,32,32,0,0,1,4.86,1.67,28.51,28.51,0,0,1-2.5,1.73A8.37,8.37,0,0,1,630.66,702.77Z" transform="translate(-528.51 -673.37)"/>
        </g>
        <path class="cls-2" d="M641.83,687a3.15,3.15,0,1,1,3.15-3.15A3.15,3.15,0,0,1,641.83,687Z" transform="translate(-528.51 -673.37)"/>
      </g>
    </g>
    <g>
      <path class="cls-2" d="M582.06,702a13.45,13.45,0,0,1-13.56,13.36H542.08A13.46,13.46,0,0,1,528.51,702h0V686.74a13.46,13.46,0,0,1,13.57-13.36H568.5a13.45,13.45,0,0,1,13.56,13.36h0Z" transform="translate(-528.51 -673.37)"/>
      <g>
        <path class="cls-3" d="M532.44,686.86h8.63c2.58,0,4.87,1.28,4.87,3.84a3,3,0,0,1-2.07,2.86,3.63,3.63,0,0,1,3,3.49c0,2.57-2.24,4.15-5.19,4.15h-9.25Zm3.13,5.74h5.15c1.37,0,2.1-.76,2.1-1.63s-.73-1.57-2.1-1.57h-5.15Zm0,6.1h5.77c1.4,0,2.42-.78,2.42-1.79s-1-1.81-2.42-1.81h-5.77Z" transform="translate(-528.51 -673.37)"/>
        <polygon class="cls-3" points="22.59 19.37 22.59 27.84 19.47 27.84 19.47 13.19 30.37 21.95 30.37 13.49 33.49 13.49 33.49 28.14 22.59 19.37"/>
        <polygon class="cls-3" points="38.51 19.37 38.51 27.84 35.38 27.84 35.38 13.19 46.28 21.95 46.28 13.49 49.41 13.49 49.41 28.14 38.51 19.37"/>
      </g>
    </g>
  </g>
  <text class="cls-1" transform="translate(268.1 31.29)">•</text>
  <g>
    <g>
      <path class="cls-2" d="M904,702a13.46,13.46,0,0,1-13.56,13.36H864A13.47,13.47,0,0,1,850.4,702V686.74A13.48,13.48,0,0,1,864,673.37h26.42A13.47,13.47,0,0,1,904,686.74Z" transform="translate(-528.51 -673.37)"/>
      <path id="f-2" data-name="f" class="cls-3" d="M882.54,715.37V698.73h5.59l.83-6.49h-6.42V688.1c0-1.88.52-3.16,3.21-3.16h3.44v-5.8a46.11,46.11,0,0,0-5-.25c-4.95,0-8.34,3-8.34,8.57v4.78h-5.6v6.49h5.6v16.64Z" transform="translate(-528.51 -673.37)"/>
    </g>
    <g>
      <path class="cls-2" d="M987.63,702a13.47,13.47,0,0,1-13.57,13.36H947.64A13.46,13.46,0,0,1,934.08,702V686.74a13.47,13.47,0,0,1,13.56-13.37h26.42a13.48,13.48,0,0,1,13.57,13.37Z" transform="translate(-528.51 -673.37)"/>
      <g>
        <path class="cls-3" d="M962.5,691.56v-.06l0,.06Z" transform="translate(-528.51 -673.37)"/>
        <rect class="cls-3" x="418.6" y="15.47" width="6.23" height="18.75"/>
        <path class="cls-3" d="M950.23,686.29h0a3.25,3.25,0,1,1,3.57-3.25A3.24,3.24,0,0,1,950.19,686.29Z" transform="translate(-528.51 -673.37)"/>
        <path class="cls-3" d="M975.82,707.6h-6.23v-10c0-2.52-.9-4.24-3.16-4.24a3.43,3.43,0,0,0-3.2,2.28,4.38,4.38,0,0,0-.2,1.52V707.6H956.8s.08-17,0-18.75H963v2.65a6.19,6.19,0,0,1,5.62-3.1c4.1,0,7.17,2.68,7.17,8.44V707.6Z" transform="translate(-528.51 -673.37)"/>
      </g>
    </g>
    <g>
      <path class="cls-2" d="M1071.3,702a13.47,13.47,0,0,1-13.55,13.38h-26.46A13.47,13.47,0,0,1,1017.75,702V686.76a13.48,13.48,0,0,1,13.54-13.39h26.41a13.49,13.49,0,0,1,13.6,13.39Z" transform="translate(-528.51 -673.37)"/>
      <g>
        <path class="cls-3" d="M1044.52,680.62c4.47,0,5,0,6.78.1a9.18,9.18,0,0,1,3.09.58,5.47,5.47,0,0,1,1.95,1.26,5.66,5.66,0,0,1,1.26,1.94,9.07,9.07,0,0,1,.57,3.1c.11,1.79.11,2.31.11,6.77s0,5-.11,6.78a9.12,9.12,0,0,1-.57,3.1,5.54,5.54,0,0,1-3.21,3.2,9,9,0,0,1-3.09.57c-1.79.11-2.31.11-6.78.11s-5,0-6.77-.11a9.07,9.07,0,0,1-3.1-.57,5.66,5.66,0,0,1-1.94-1.26,5.47,5.47,0,0,1-1.26-2,9.18,9.18,0,0,1-.58-3.09c-.1-1.79-.1-2.31-.1-6.78s0-5,.1-6.77a9.25,9.25,0,0,1,.58-3.1,5.56,5.56,0,0,1,3.2-3.2,9.25,9.25,0,0,1,3.1-.58c1.73-.1,2.31-.1,6.77-.1m0-3c-4.56,0-5.14,0-6.93.11a13,13,0,0,0-4.09.79,8.61,8.61,0,0,0-4.94,4.93,12.73,12.73,0,0,0-.78,4.1c-.06,1.73-.06,2.31-.06,6.87s0,5.15.11,6.93a13,13,0,0,0,.79,4.1,8.56,8.56,0,0,0,4.93,4.93,12.7,12.7,0,0,0,4.1.79c1.73,0,2.31,0,6.87,0s5.15,0,6.93-.1a13,13,0,0,0,4.1-.79,8.18,8.18,0,0,0,3-1.94,8.06,8.06,0,0,0,1.94-3,12.7,12.7,0,0,0,.79-4.1c0-1.73,0-2.31,0-6.88s0-5.14-.1-6.93a13.27,13.27,0,0,0-.79-4.09,8.61,8.61,0,0,0-4.93-4.94,12.73,12.73,0,0,0-4.1-.78c-1.73-.06-2.31-.06-6.88-.06" transform="translate(-528.51 -673.37)"/>
        <path class="cls-3" d="M1044.52,685.76a8.61,8.61,0,1,0,8.61,8.61,8.62,8.62,0,0,0-8.61-8.61m0,14.23a5.62,5.62,0,1,1,5.62-5.62,5.62,5.62,0,0,1-5.62,5.62" transform="translate(-528.51 -673.37)"/>
        <path class="cls-3" d="M1055.5,685.4a2,2,0,1,1-2-2,2,2,0,0,1,2,2" transform="translate(-528.51 -673.37)"/>
      </g>
    </g>
  </g>
  <g>
    <g>
      <path class="cls-2" d="M749.4,702a13.45,13.45,0,0,1-13.56,13.36H709.42A13.45,13.45,0,0,1,695.86,702h0V686.74a13.45,13.45,0,0,1,13.56-13.36h26.42a13.45,13.45,0,0,1,13.56,13.36h0Z" transform="translate(-528.51 -673.37)"/>
      <g>
        <path class="cls-4" d="M713.7,684.23h-3.92a10.53,10.53,0,1,0,0,21h7.37a3.35,3.35,0,0,0,3.38-3.32v-6.45l5.1,8a3.86,3.86,0,0,0,7.08-2.13v-5.92l5.1,8a3.86,3.86,0,0,0,7.08-2.13V684.22h-2.63v17.21a1.22,1.22,0,0,1-2.24.69l-9.11-14.31a.46.46,0,0,0-.65-.11.47.47,0,0,0-.2.38v13.35a1.23,1.23,0,0,1-1.23,1.23,1.21,1.21,0,0,1-1-.52l-9.08-14.33a.46.46,0,0,0-.65-.07.5.5,0,0,0-.18.34v13.84a.73.73,0,0,1-.73.74h-7.4a7.9,7.9,0,0,1,0-15.8h3.93Z" transform="translate(-528.51 -673.37)"/>
        <path class="cls-4" d="M714.12,699.28a.37.37,0,0,0,.37-.37V688.08a3.86,3.86,0,0,1,7.09-2.1l5.09,8v-5.87a3.86,3.86,0,0,1,7.08-2.1l5.09,8v-9.73h2.63v17.21a.47.47,0,0,1-.47.47.45.45,0,0,1-.37-.19l-9.08-14.32a1.22,1.22,0,0,0-2.25.69v13.35a.47.47,0,0,1-.47.47.45.45,0,0,1-.37-.19l-9.09-14.32a1.23,1.23,0,0,0-1.72-.32,1.21,1.21,0,0,0-.53,1v13.46a.37.37,0,0,1-.38.37h-7a7.16,7.16,0,1,1,0-14.31h3.92v2.66h-3.92a4.52,4.52,0,0,0,0,9Z" transform="translate(-528.51 -673.37)"/>
      </g>
    </g>
    <g>
      <path class="cls-2" d="M665.73,702a13.45,13.45,0,0,1-13.56,13.36H625.75A13.46,13.46,0,0,1,612.18,702h0V686.74a13.46,13.46,0,0,1,13.57-13.36h26.42a13.45,13.45,0,0,1,13.56,13.36h0Z" transform="translate(-528.51 -673.37)"/>
      <g>
        <g>
          <path class="cls-5" d="M654.05,713.39c-.31-1.65-3.77-7-7.21-10.66a31.66,31.66,0,0,0-5.39-4.41,30,30,0,0,0,5.57-.94c2.63-.76,7.12-2.85,7-5.82,0-1.21-1-5.25-12.27-6.83h-.12a.88.88,0,0,0-.88.87.87.87,0,0,0,.66.86c4.85,1.27,7.06,2.93,7.09,4,.05,1.34-1.66,2.62-4.69,3.6-1.79.56-4,.91-9.6,1a16.13,16.13,0,0,0-1.94-.6,20.91,20.91,0,0,0-3.43-.53,37.33,37.33,0,0,1,5.5-8.38c4.6-5.41,8.14-7.19,10.41-8.08a.88.88,0,0,0,.51-1.13.89.89,0,0,0-.65-.55,10.61,10.61,0,0,0-1.69-.14,9.64,9.64,0,0,0-1.52.12c-1.58.26-3.68.92-7.27,3.88a46.07,46.07,0,0,0-7.21,8.37,32.41,32.41,0,0,0-3,5.88,12,12,0,0,1-3-1c-1.8-.87-3.09-2.13-2.93-2.89a.86.86,0,0,0-.57-1,.92.92,0,0,0-.28,0,.89.89,0,0,0-.77.48,4.56,4.56,0,0,0,1.75,5.6,14.2,14.2,0,0,0,4.73,2.28c-.91,3.31-.7,6,.62,7.93a5,5,0,0,0,4.2,2,6.2,6.2,0,0,0,1-.07c2.81-.43,6.72-2.84,9.34-5.72a28.34,28.34,0,0,1,2.82,1.64,46,46,0,0,1,5.66,4.48,72.08,72.08,0,0,1,6.06,6.54.83.83,0,0,0,.67.32.87.87,0,0,0,.88-.86.58.58,0,0,0,0-.19Zm-18-12.84c-.9.68-1.87,1.34-2.5,1.72a8.65,8.65,0,0,1-4.12,1.38,2.46,2.46,0,0,1-1.66-.5c-.59-.52-.85-1.49-.8-3a12.15,12.15,0,0,1,.21-1.89,30.13,30.13,0,0,1,4,.63A33.59,33.59,0,0,1,636,700.55Z" transform="translate(-528.51 -673.37)"/>
          <path class="cls-5" d="M640.61,680.75a4,4,0,1,0,4,4h0A4,4,0,0,0,640.61,680.75Z" transform="translate(-528.51 -673.37)"/>
        </g>
        <path class="cls-3" d="M641.83,680.73a3.11,3.11,0,1,1-3.11,3.11h0a3.11,3.11,0,0,1,3.11-3.11m0-.88a4,4,0,1,0,4,4h0A4,4,0,0,0,641.83,679.85Z" transform="translate(-528.51 -673.37)"/>
        <path class="cls-6" d="M646.34,675.64c-.26-1-2-1-3.24-.8a15.87,15.87,0,0,0-6,2.74c-4.09,3-9.7,9-12,15.54-2-.32-5.48-1.89-5.83-3.22-.2-1-.45-1.58-1.41-1.37s-1.12,2.62,0,3.9a12.17,12.17,0,0,0,6.3,3.79c-1.09,3.93-.84,8.33,2.47,9.64,3.81,1.49,8.65-1.87,11-3.93l1.6-1.39a33.17,33.17,0,0,1,7.16,4.93,70.93,70.93,0,0,1,7.1,7.4,1.16,1.16,0,0,0,1.37.4c.85-.34-.3-2.28-.3-2.28a39.83,39.83,0,0,0-4.35-6.7,38.09,38.09,0,0,0-7.77-6.82,26.63,26.63,0,0,0,6.83-1.42c3.35-1.23,5.25-2.82,5.64-4a3.54,3.54,0,0,0-.37-3.29c-1.65-2.24-4.78-3.75-8.78-4.61a4,4,0,0,0-5.52-4,13.29,13.29,0,0,1,2.83-2.15C645.07,676.91,646.55,676.45,646.34,675.64Z" transform="translate(-528.51 -673.37)"/>
        <g>
          <path class="cls-2" d="M639,699.49l0,0a33,33,0,0,1-3.74,2.68,9.33,9.33,0,0,1-4.56,1.5,3.37,3.37,0,0,1-2.24-.71c-.85-.76-1.15-2-1.09-3.68a11.46,11.46,0,0,1,.4-2.79,30.32,30.32,0,0,1,4.93.69,35.21,35.21,0,0,1,6.3,2.31l.24-.2-.19.23a29,29,0,0,1,3.52,2,44.64,44.64,0,0,1,5.78,4.57,68.76,68.76,0,0,1,6.15,6.62c-.28-1.35-3.54-6.56-7-10.23-1.39-1.47-5.12-4.68-8.09-5.74a34.19,34.19,0,0,0,8.67-1.05c3.43-1,6.46-2.63,6.39-5-.07-2-3.05-4.79-11.52-6,4.34,1.14,7.68,2.88,7.75,4.82s-2.1,3.46-5.31,4.48c-1.85.58-4.12,1-10,1.08a19.57,19.57,0,0,0-3-.85,21.86,21.86,0,0,0-3.52-.34,33.78,33.78,0,0,1,6.14-9.73c4.3-5,7.87-7.19,10.76-8.32a9.34,9.34,0,0,0-2.89,0c-1.58.25-3.56,1-6.86,3.68a45.58,45.58,0,0,0-7,8.16,31.8,31.8,0,0,0-3.2,6.32h-.14a10.55,10.55,0,0,1-3.79-1.15c-1.85-.89-3.68-2.43-3.41-3.86a3.68,3.68,0,0,0,1.49,4.51,13.07,13.07,0,0,0,5.3,2.32c-1.09,3.49-1,6.3.27,8.1a4.17,4.17,0,0,0,3.46,1.57,4.76,4.76,0,0,0,.83-.08C632.58,705,636.61,702.35,639,699.49Z" transform="translate(-528.51 -673.37)"/>
          <path class="cls-3" d="M655.32,712.51c-.31-1.66-3.77-7-7.21-10.67a31.82,31.82,0,0,0-5.4-4.41,29.35,29.35,0,0,0,5.58-1c4.68-1.32,7.11-3.33,7-5.77,0-1.2-1-5.25-12.27-6.82h-.12a.87.87,0,0,0-.87.88.9.9,0,0,0,.65.84c4.84,1.27,7,2.93,7.1,4,0,1.34-1.67,2.63-4.7,3.6-1.8.57-4,.92-9.62,1a21.94,21.94,0,0,0-3-.83,21.18,21.18,0,0,0-2.38-.29,37.21,37.21,0,0,1,5.51-8.41c4.59-5.39,8.14-7.19,10.41-8.08a.87.87,0,0,0-.15-1.67,7.9,7.9,0,0,0-1.68-.15,9.64,9.64,0,0,0-1.52.12c-1.58.26-3.68.92-7.27,3.87a46.07,46.07,0,0,0-7.21,8.37,33.45,33.45,0,0,0-3.05,5.88,11.53,11.53,0,0,1-3-1c-1.8-.86-3.09-2.13-2.93-2.88a.89.89,0,0,0-.58-1,.92.92,0,0,0-.28,0,.88.88,0,0,0-.79.49,4.55,4.55,0,0,0,1.76,5.6,14.32,14.32,0,0,0,4.72,2.27c-.89,3.32-.66,6,.64,7.94a5.06,5.06,0,0,0,4.2,2,6.22,6.22,0,0,0,1-.08c2.81-.42,6.72-2.83,9.34-5.71a24.67,24.67,0,0,1,2.82,1.64,44.56,44.56,0,0,1,5.66,4.48,71.1,71.1,0,0,1,6.09,6.54.86.86,0,0,0,.67.32.81.81,0,0,0,.37-.09A.85.85,0,0,0,655.32,712.51Zm-26.4-7a4.19,4.19,0,0,1-3.45-1.58c-1.26-1.81-1.37-4.61-.28-8.1a12.94,12.94,0,0,1-5.3-2.32,3.67,3.67,0,0,1-1.48-4.5c-.29,1.42,1.57,3,3.4,3.85a10.76,10.76,0,0,0,3.8,1.16h.13a32.7,32.7,0,0,1,3.2-6.33,45.23,45.23,0,0,1,7-8.16c3.3-2.71,5.28-3.43,6.85-3.67a8.82,8.82,0,0,1,2.9,0c-2.9,1.13-6.46,3.27-10.77,8.32a33.82,33.82,0,0,0-6.13,9.74,20.65,20.65,0,0,1,3.51.33,21,21,0,0,1,3,.86c5.91-.13,8.17-.53,10-1.09,3.23-1,5.37-2.53,5.31-4.47s-3.41-3.68-7.75-4.83c8.47,1.21,11.44,4,11.51,6,.08,2.35-3,4-6.38,4.95a33.31,33.31,0,0,1-8.67,1.05c3,1,6.7,4.28,8.09,5.75,3.45,3.67,6.73,8.87,7,10.23a69.08,69.08,0,0,0-6.17-6.63,45.42,45.42,0,0,0-5.77-4.57,28.38,28.38,0,0,0-3.52-2c-2.39,2.86-6.43,5.5-9.25,5.91A4.67,4.67,0,0,1,628.92,705.48Z" transform="translate(-528.51 -673.37)"/>
          <path class="cls-3" d="M627.73,696.44a11.46,11.46,0,0,0-.4,2.79c-.06,1.66.24,2.95,1.09,3.68a3.42,3.42,0,0,0,2.24.7,9.23,9.23,0,0,0,4.56-1.49,32.87,32.87,0,0,0,3.74-2.66,35.21,35.21,0,0,0-6.3-2.31A30.35,30.35,0,0,0,627.73,696.44Zm2.93,6.33a2.49,2.49,0,0,1-1.68-.52c-.58-.53-.85-1.5-.8-3a11.88,11.88,0,0,1,.21-1.89,27.2,27.2,0,0,1,4,.63,32,32,0,0,1,4.86,1.67,28.51,28.51,0,0,1-2.5,1.73A8.37,8.37,0,0,1,630.66,702.77Z" transform="translate(-528.51 -673.37)"/>
        </g>
        <path class="cls-2" d="M641.83,687a3.15,3.15,0,1,1,3.15-3.15A3.15,3.15,0,0,1,641.83,687Z" transform="translate(-528.51 -673.37)"/>
      </g>
    </g>
    <g>
      <path class="cls-2" d="M582.06,702a13.45,13.45,0,0,1-13.56,13.36H542.08A13.46,13.46,0,0,1,528.51,702h0V686.74a13.46,13.46,0,0,1,13.57-13.36H568.5a13.45,13.45,0,0,1,13.56,13.36h0Z" transform="translate(-528.51 -673.37)"/>
      <g>
        <path class="cls-3" d="M532.44,686.86h8.63c2.58,0,4.87,1.28,4.87,3.84a3,3,0,0,1-2.07,2.86,3.63,3.63,0,0,1,3,3.49c0,2.57-2.24,4.15-5.19,4.15h-9.25Zm3.13,5.74h5.15c1.37,0,2.1-.76,2.1-1.63s-.73-1.57-2.1-1.57h-5.15Zm0,6.1h5.77c1.4,0,2.42-.78,2.42-1.79s-1-1.81-2.42-1.81h-5.77Z" transform="translate(-528.51 -673.37)"/>
        <polygon class="cls-3" points="22.59 19.37 22.59 27.84 19.47 27.84 19.47 13.19 30.37 21.95 30.37 13.49 33.49 13.49 33.49 28.14 22.59 19.37"/>
        <polygon class="cls-3" points="38.51 19.37 38.51 27.84 35.38 27.84 35.38 13.19 46.28 21.95 46.28 13.49 49.41 13.49 49.41 28.14 38.51 19.37"/>
      </g>
    </g>
  </g>
</svg>
