<svg id="Layer_1" data-name="Layer 1" xmlns="http://www.w3.org/2000/svg" width="267.5" height="49.3" viewBox="0 0 267.5 49.3">
  <defs>
    <style>
      .cls-1 {
        fill: #4d4d4f;
      }

      .cls-2 {
        fill: #61a744;
      }

      .cls-3 {
        fill: #484542;
      }

      .cls-4 {
        fill: none;
      }
    </style>
  </defs>
  <title>ecogrow</title>
  <path class="cls-1" d="M62,30.2a15.4,15.4,0,0,1-5.9-5.7A16.25,16.25,0,0,1,54,16.2a16.25,16.25,0,0,1,2.1-8.3A15.4,15.4,0,0,1,62,2.2a18.48,18.48,0,0,1,16.3-.4,12.53,12.53,0,0,1,5.2,5l-4.3,2.8a9.73,9.73,0,0,0-8.6-4.5A11.62,11.62,0,0,0,65,6.5a10.42,10.42,0,0,0-3.9,3.9,12.13,12.13,0,0,0-1.4,5.8,12.54,12.54,0,0,0,1.4,5.9A9.17,9.17,0,0,0,65,26a11.69,11.69,0,0,0,10.5.3,10,10,0,0,0,3.7-3.4l4.3,2.7a12,12,0,0,1-5.2,5,15.92,15.92,0,0,1-7.7,1.8A18.58,18.58,0,0,1,62,30.2Z" transform="translate(-0.53 0)"/>
  <path class="cls-1" d="M93.13,30.2a15.4,15.4,0,0,1-5.9-5.7,16.25,16.25,0,0,1-2.1-8.3,16.25,16.25,0,0,1,2.1-8.3,15.4,15.4,0,0,1,5.9-5.7,18.05,18.05,0,0,1,16.9,0,15.13,15.13,0,0,1,5.8,5.7,16.25,16.25,0,0,1,2.1,8.3,16.25,16.25,0,0,1-2.1,8.3,15.12,15.12,0,0,1-5.8,5.7,18.05,18.05,0,0,1-16.9,0ZM107,25.9a9.52,9.52,0,0,0,3.8-3.9,12.13,12.13,0,0,0,1.4-5.8,12.13,12.13,0,0,0-1.4-5.8A9.52,9.52,0,0,0,107,6.5a11.11,11.11,0,0,0-10.8,0,9.52,9.52,0,0,0-3.8,3.9A12.13,12.13,0,0,0,91,16.2a12.13,12.13,0,0,0,1.4,5.8,9.52,9.52,0,0,0,3.8,3.9,10.85,10.85,0,0,0,5.4,1.4A9.91,9.91,0,0,0,107,25.9Z" transform="translate(-0.53 0)"/>
  <g>
    <path class="cls-2" d="M146.73,16.2H151V28.5a17.83,17.83,0,0,1-5.4,3,20.09,20.09,0,0,1-6.5,1,17.66,17.66,0,0,1-8.6-2.1,16.41,16.41,0,0,1-6-5.7,15.27,15.27,0,0,1-2.2-8.2,15.87,15.87,0,0,1,2.2-8.3,14.94,14.94,0,0,1,6-5.7,17.66,17.66,0,0,1,8.6-2.1,18.31,18.31,0,0,1,6.8,1.2,12.82,12.82,0,0,1,5.2,3.6L148.33,8a12.77,12.77,0,0,0-9.1-3.6,13.43,13.43,0,0,0-6.4,1.5,11.51,11.51,0,0,0-6.1,10.5,12,12,0,0,0,1.6,6.2,11.63,11.63,0,0,0,4.5,4.3,13.49,13.49,0,0,0,6.4,1.6,13.88,13.88,0,0,0,7.4-2V16.2Z" transform="translate(-0.53 0)"/>
    <path class="cls-2" d="M178.83,32.1,172,22.4a15.56,15.56,0,0,1-2,.1h-7.8v9.6h-4.5V.7H170c4.1,0,7.3,1,9.6,2.9a9.88,9.88,0,0,1,3.5,8,10.55,10.55,0,0,1-1.8,6.2,10.29,10.29,0,0,1-5.1,3.7l7.5,10.6Zm-2.4-15.2a6.39,6.39,0,0,0,2.2-5.3,6.19,6.19,0,0,0-2.2-5.2,10.27,10.27,0,0,0-6.5-1.8h-7.6V18.7h7.6C172.83,18.8,174.93,18.2,176.43,16.9Z" transform="translate(-0.53 0)"/>
    <path class="cls-2" d="M194.33,30.4a15.9,15.9,0,0,1-6-5.8,15.52,15.52,0,0,1-2.2-8.2,15.27,15.27,0,0,1,2.2-8.2,15.9,15.9,0,0,1,6-5.8,18.45,18.45,0,0,1,17.1,0,16.41,16.41,0,0,1,6,5.7,16.21,16.21,0,0,1,2.2,8.2,15.27,15.27,0,0,1-2.2,8.2,14.36,14.36,0,0,1-6,5.7,17.28,17.28,0,0,1-8.5,2.1A15.4,15.4,0,0,1,194.33,30.4Zm14.8-3.5a12.09,12.09,0,0,0,4.4-4.3,11.7,11.7,0,0,0,1.6-6.2,12,12,0,0,0-1.6-6.2,11.36,11.36,0,0,0-4.4-4.3,12.7,12.7,0,0,0-6.2-1.6,12.31,12.31,0,0,0-6.3,1.6,11.36,11.36,0,0,0-4.4,4.3,11.7,11.7,0,0,0-1.6,6.2,12,12,0,0,0,1.6,6.2,11.36,11.36,0,0,0,4.4,4.3,13.39,13.39,0,0,0,6.3,1.6A12,12,0,0,0,209.13,26.9Z" transform="translate(-0.53 0)"/>
    <path class="cls-2" d="M268,.7l-10.5,31.4h-4.7L244.23,7l-8.6,25.1h-4.8L220.33.7h4.6l8.5,25.6L242.23.7h4.1L255,26.4,263.73.7Z" transform="translate(-0.53 0)"/>
  </g>
  <path class="cls-2" d="M.53.7A35.53,35.53,0,0,0,1,6.4a39.07,39.07,0,0,0,32.3,32.3,36.57,36.57,0,0,0,5.7.5,35.53,35.53,0,0,0-.5-5.7A39.08,39.08,0,0,0,6.33,1.3,36.77,36.77,0,0,0,.53.7ZM7,7.2a33.3,33.3,0,0,1,25.5,25.5A33.3,33.3,0,0,1,7,7.2Z" transform="translate(-0.53 0)"/>
  <path class="cls-3" d="M44,31a13.6,13.6,0,0,0,5.3-3.8l-3.2-3.7a11.33,11.33,0,0,1-7,3.6,38.94,38.94,0,0,1,1.2,4.9A15.57,15.57,0,0,0,44,31Z" transform="translate(-0.53 0)"/>
  <path class="cls-1" d="M28.83,7.4a9.61,9.61,0,0,1,6.9-2.5,9.94,9.94,0,0,1,6.9,2.5,10.36,10.36,0,0,1,3.2,6.5h-14a39.07,39.07,0,0,1,3,4.1h16.3a11.56,11.56,0,0,0,.1-1.7,18.08,18.08,0,0,0-2-8.5,13.76,13.76,0,0,0-5.5-5.7A15.78,15.78,0,0,0,35.63,0a15.78,15.78,0,0,0-8.1,2.1,15,15,0,0,0-4.6,4.1,32.53,32.53,0,0,1,4.2,3.1C27.73,8.7,28.23,8,28.83,7.4Z" transform="translate(-0.53 0)"/>
  <path class="cls-4" d="M25.93,12.5c-.1.4-.2.9-.3,1.3h1.6A15.93,15.93,0,0,0,25.93,12.5Z" transform="translate(-0.53 0)"/>
  <path class="cls-4" d="M107,6.3a11.11,11.11,0,0,0-10.8,0,9.52,9.52,0,0,0-3.8,3.9A12.13,12.13,0,0,0,91,16a12.13,12.13,0,0,0,1.4,5.8,9.52,9.52,0,0,0,3.8,3.9,11.11,11.11,0,0,0,10.8,0,9.52,9.52,0,0,0,3.8-3.9,12.13,12.13,0,0,0,1.4-5.8,12.13,12.13,0,0,0-1.4-5.8A9.52,9.52,0,0,0,107,6.3Z" transform="translate(-0.53 0)"/>
  <g>
    <path class="cls-1" d="M45.63,38.7h-4.1V38h9v.7h-4.1V49.3h-.8Z" transform="translate(-0.53 0)"/>
    <path class="cls-1" d="M71,48.5v.7h-7.8V37.9h7.6v.7h-6.7v4.5h6v.7h-6v4.6Z" transform="translate(-0.53 0)"/>
    <path class="cls-1" d="M86.43,48.6a5.3,5.3,0,0,1-2.1-2.1,6,6,0,0,1-.8-2.9,5.47,5.47,0,0,1,.8-2.9,5.3,5.3,0,0,1,2.1-2.1,6,6,0,0,1,3-.7,5.87,5.87,0,0,1,2.3.4,5.67,5.67,0,0,1,1.8,1.2L93,40a4.75,4.75,0,0,0-3.5-1.3,5.83,5.83,0,0,0-2.6.6,3.92,3.92,0,0,0-1.8,1.8,5.53,5.53,0,0,0-.7,2.5,4.3,4.3,0,0,0,.7,2.5,4.45,4.45,0,0,0,1.8,1.8,5.54,5.54,0,0,0,2.6.6A4.83,4.83,0,0,0,93,47.1l.5.5a5.67,5.67,0,0,1-1.8,1.2,5.56,5.56,0,0,1-2.3.4A5.09,5.09,0,0,1,86.43,48.6Z" transform="translate(-0.53 0)"/>
    <path class="cls-1" d="M116.13,37.9V49.2h-.8V43.8h-7.6v5.4h-.8V37.9h.8v5.2h7.6V37.9Z" transform="translate(-0.53 0)"/>
    <path class="cls-1" d="M139.93,37.9V49.2h-.7l-7.7-9.8v9.8h-.8V37.9h.7l7.7,9.8V37.9Z" transform="translate(-0.53 0)"/>
    <path class="cls-1" d="M156.43,48.6a5.3,5.3,0,0,1-2.1-2.1,5.74,5.74,0,0,1-.8-2.9,5.47,5.47,0,0,1,.8-2.9,5.3,5.3,0,0,1,2.1-2.1,6.11,6.11,0,0,1,3-.8,6,6,0,0,1,3,.7,5.3,5.3,0,0,1,2.1,2.1,6,6,0,0,1,.8,2.9,5.47,5.47,0,0,1-.8,2.9,5.3,5.3,0,0,1-2.1,2.1,6,6,0,0,1-3,.7A5.09,5.09,0,0,1,156.43,48.6Zm5.5-.7a3.92,3.92,0,0,0,1.8-1.8,5.53,5.53,0,0,0,.7-2.5,4.3,4.3,0,0,0-.7-2.5,5.17,5.17,0,0,0-1.8-1.8,5.54,5.54,0,0,0-2.6-.6,5.83,5.83,0,0,0-2.6.6,3.92,3.92,0,0,0-1.8,1.8,5.53,5.53,0,0,0-.7,2.5,4.3,4.3,0,0,0,.7,2.5,3.92,3.92,0,0,0,1.8,1.8,5.54,5.54,0,0,0,2.6.6A4.37,4.37,0,0,0,161.93,47.9Z" transform="translate(-0.53 0)"/>
    <path class="cls-1" d="M178.83,37.9h.8V48.5h6.5v.7h-7.3Z" transform="translate(-0.53 0)"/>
    <path class="cls-1" d="M200.53,48.6a5.3,5.3,0,0,1-2.1-2.1,5.74,5.74,0,0,1-.8-2.9,5.47,5.47,0,0,1,.8-2.9,5.3,5.3,0,0,1,2.1-2.1,6.11,6.11,0,0,1,3-.8,6,6,0,0,1,3,.7,5.3,5.3,0,0,1,2.1,2.1,6,6,0,0,1,.8,2.9,5.47,5.47,0,0,1-.8,2.9,5.3,5.3,0,0,1-2.1,2.1,6,6,0,0,1-3,.7A5.09,5.09,0,0,1,200.53,48.6Zm5.6-.7a3.92,3.92,0,0,0,1.8-1.8,5.53,5.53,0,0,0,.7-2.5,4.3,4.3,0,0,0-.7-2.5,3.92,3.92,0,0,0-1.8-1.8,5.54,5.54,0,0,0-2.6-.6,5.83,5.83,0,0,0-2.6.6,3.92,3.92,0,0,0-1.8,1.8,5.53,5.53,0,0,0-.7,2.5,4.3,4.3,0,0,0,.7,2.5,5.17,5.17,0,0,0,1.8,1.8,5.54,5.54,0,0,0,2.6.6A4.75,4.75,0,0,0,206.13,47.9Z" transform="translate(-0.53 0)"/>
    <path class="cls-1" d="M231,43.6h.8v4.2a5.44,5.44,0,0,1-1.8,1.1,8.51,8.51,0,0,1-2.2.4,6,6,0,0,1-3-.7,5.3,5.3,0,0,1-2.1-2.1,6,6,0,0,1-.8-2.9,5.47,5.47,0,0,1,.8-2.9,5.3,5.3,0,0,1,2.1-2.1,6,6,0,0,1,3-.7,5.87,5.87,0,0,1,2.3.4,4.39,4.39,0,0,1,1.8,1.2l-.5.5a3.91,3.91,0,0,0-1.6-1,5.82,5.82,0,0,0-1.9-.3,5.54,5.54,0,0,0-2.6.6,3.92,3.92,0,0,0-1.8,1.8,5.53,5.53,0,0,0-.7,2.5,4.3,4.3,0,0,0,.7,2.5,4.45,4.45,0,0,0,1.8,1.8,5.59,5.59,0,0,0,2.6.7,4.72,4.72,0,0,0,3.2-1Z" transform="translate(-0.53 0)"/>
    <path class="cls-1" d="M249.63,45.3v3.9h-.9V45.3l-4.6-7.4h.9l4.1,6.7,4.1-6.7h.9Z" transform="translate(-0.53 0)"/>
  </g>
</svg>
