<svg id="Layer_1" data-name="Layer 1" xmlns="http://www.w3.org/2000/svg" width="403.8" height="72.7" viewBox="0 0 403.8 72.7">
  <defs>
    <style>
      .cls-1 {
        fill: #61a744;
      }

      .cls-2 {
        fill: #58595b;
      }
    </style>
  </defs>
  <title>ecoled2</title>
  <g>
    <path class="cls-1" d="M176.4,67.2a35.25,35.25,0,0,0-29.1-29.1,29.61,29.61,0,0,0-5.2-.4,43.82,43.82,0,0,0,.4,5.2A35.25,35.25,0,0,0,171.6,72a29.61,29.61,0,0,0,5.2.4A29.61,29.61,0,0,0,176.4,67.2ZM149.3,44.8a29.16,29.16,0,0,1,20.4,20.4A29.16,29.16,0,0,1,149.3,44.8Z" transform="translate(0 0.1)"/>
    <path class="cls-1" d="M209.7,38.1a35.25,35.25,0,0,0-29.1,29.1,43.63,43.63,0,0,0-.5,5.2,43.82,43.82,0,0,0,5.2-.4,35.25,35.25,0,0,0,29.1-29.1,29.61,29.61,0,0,0,.4-5.2A29.22,29.22,0,0,0,209.7,38.1ZM187.3,65.2a29.16,29.16,0,0,1,20.4-20.4A29.16,29.16,0,0,1,187.3,65.2Z" transform="translate(0 0.1)"/>
    <path class="cls-1" d="M214.4,29.8A35.25,35.25,0,0,0,185.3.7a29.61,29.61,0,0,0-5.2-.4,29.57,29.57,0,0,0,.5,5.2,35.25,35.25,0,0,0,29.1,29.1,29.61,29.61,0,0,0,5.2.4A29.57,29.57,0,0,0,214.4,29.8ZM187.3,7.4a29.16,29.16,0,0,1,20.4,20.4A29.16,29.16,0,0,1,187.3,7.4Z" transform="translate(0 0.1)"/>
    <path class="cls-1" d="M171.7.7a35.25,35.25,0,0,0-29.1,29.1,29.61,29.61,0,0,0-.4,5.2,43.82,43.82,0,0,0,5.2-.4A35.25,35.25,0,0,0,176.5,5.5a29.61,29.61,0,0,0,.4-5.2A29.61,29.61,0,0,0,171.7.7ZM149.3,27.8A29.16,29.16,0,0,1,169.7,7.4,29.16,29.16,0,0,1,149.3,27.8Z" transform="translate(0 0.1)"/>
  </g>
  <g>
    <path class="cls-1" d="M0,36.4v-.3C0,16.1,14.1,0,33.3,0,53.9,0,65.7,16.4,65.7,36.7c0,1.3,0,2.1-.1,3.4H10.5C12,55.1,22.6,63.6,35,63.6c9.5,0,16.3-3.9,21.9-9.8l6.5,5.8c-7,7.8-15.5,13-28.6,13C15.6,72.5,0,57.9,0,36.4Zm55.2-4C54.1,19.8,46.9,8.8,33,8.8c-12.1,0-21.2,10.1-22.6,23.6Z" transform="translate(0 0.1)"/>
    <path class="cls-1" d="M71.5,36.5v-.3C71.5,16.6,86.8-.1,107.1-.1c13.2,0,21.4,5.5,27.8,12.4L128,19.6c-5.5-5.8-11.7-10.5-21.1-10.5C92.8,9.1,82,21.1,82,36v.3c0,15,11,27,25.5,27,8.9,0,15.7-4.4,21.2-10.3l6.6,6.2c-7,7.8-15.3,13.4-28.4,13.4C86.8,72.5,71.5,56,71.5,36.5Z" transform="translate(0 0.1)"/>
  </g>
  <g>
    <path class="cls-2" d="M393,2.5h-2.2V1.7H396v.8h-2.2V8h-.9V2.5Z" transform="translate(0 0.1)"/>
    <path class="cls-2" d="M403,8.1V3.5l-2.3,3.8h-.4L398,3.5V8.1h-.9V1.8h.7l2.6,4.5L403,1.8h.7V8.1Z" transform="translate(0 0.1)"/>
  </g>
  <g>
    <path class="cls-2" d="M225.9,2.2h7.2V63.8H271V70H225.9Z" transform="translate(0 0.1)"/>
    <path class="cls-2" d="M327,63.8V70H279.1V2.2h46.5V8.4H286.3V32.5h35v6.1h-35V63.8Z" transform="translate(0 0.1)"/>
    <path class="cls-2" d="M339.9,2.2h27.6a40,40,0,0,1,19,4.3,32.21,32.21,0,0,1,12.8,12,34.14,34.14,0,0,1,4.5,17.6,34.4,34.4,0,0,1-4.5,17.6,31.57,31.57,0,0,1-12.8,12,40,40,0,0,1-19,4.3H339.9Zm27.2,61.6a33.83,33.83,0,0,0,15.6-3.5,25.88,25.88,0,0,0,10.4-9.8,27.58,27.58,0,0,0,3.7-14.4,27.58,27.58,0,0,0-3.7-14.4,25.88,25.88,0,0,0-10.4-9.8,32.35,32.35,0,0,0-15.6-3.5h-20V63.8Z" transform="translate(0 0.1)"/>
  </g>
</svg>
