<svg id="Layer_1" data-name="Layer 1" xmlns="http://www.w3.org/2000/svg" width="588.2" height="72.7" viewBox="0 0 588.2 72.7">
  <defs>
    <style>
      .cls-1 {
        fill: #61a744;
      }

      .cls-2 {
        fill: #58595b;
      }
    </style>
  </defs>
  <title>ecopower2</title>
  <path class="cls-1" d="M176.4,67.3a35.25,35.25,0,0,0-29.1-29.1,29.25,29.25,0,0,0-5.2-.4,43,43,0,0,0,.4,5.2,35.25,35.25,0,0,0,29.1,29.1,29.25,29.25,0,0,0,5.2.4A29.25,29.25,0,0,0,176.4,67.3ZM149.3,44.9a29.16,29.16,0,0,1,20.4,20.4A29.16,29.16,0,0,1,149.3,44.9Z" transform="translate(0 0)"/>
  <path class="cls-1" d="M209.7,38.2a35.25,35.25,0,0,0-29.1,29.1,43.16,43.16,0,0,0-.5,5.2,43,43,0,0,0,5.2-.4A35.25,35.25,0,0,0,214.4,43a29.25,29.25,0,0,0,.4-5.2A29.07,29.07,0,0,0,209.7,38.2ZM187.3,65.3a29.16,29.16,0,0,1,20.4-20.4A29.16,29.16,0,0,1,187.3,65.3Z" transform="translate(0 0)"/>
  <path class="cls-1" d="M214.4,29.9A35.25,35.25,0,0,0,185.3.8a29.25,29.25,0,0,0-5.2-.4,29.36,29.36,0,0,0,.5,5.2,35.25,35.25,0,0,0,29.1,29.1,29.25,29.25,0,0,0,5.2.4A29.36,29.36,0,0,0,214.4,29.9ZM187.3,7.5a29.16,29.16,0,0,1,20.4,20.4A29.16,29.16,0,0,1,187.3,7.5Z" transform="translate(0 0)"/>
  <path class="cls-1" d="M171.7.8a35.25,35.25,0,0,0-29.1,29.1,29.25,29.25,0,0,0-.4,5.2,43,43,0,0,0,5.2-.4A35.25,35.25,0,0,0,176.5,5.6a29.25,29.25,0,0,0,.4-5.2A29.25,29.25,0,0,0,171.7.8ZM149.3,27.9A29.16,29.16,0,0,1,169.7,7.5,29.16,29.16,0,0,1,149.3,27.9Z" transform="translate(0 0)"/>
  <path class="cls-2" d="M272.4,8.1q7.5,6.3,7.5,17.4t-7.5,17.4c-5,4.2-11.9,6.3-20.8,6.3H233V71.1h-7.3V1.7h25.9C260.4,1.7,267.4,3.9,272.4,8.1Zm-5.3,30.1c3.6-3,5.4-7.2,5.4-12.7s-1.8-9.9-5.4-12.9-8.9-4.5-15.7-4.5H233V42.7h18.4C258.3,42.7,263.5,41.2,267.1,38.2Z" transform="translate(0 0)"/>
  <path class="cls-2" d="M302.4,67a34.46,34.46,0,0,1-13.1-12.6,35,35,0,0,1-4.7-18,35,35,0,0,1,4.7-18A33.75,33.75,0,0,1,302.4,5.8,37.75,37.75,0,0,1,321,1.2a36.82,36.82,0,0,1,18.5,4.6,33.49,33.49,0,0,1,13,12.6,34.73,34.73,0,0,1,4.7,18.1,35.68,35.68,0,0,1-4.7,18.1,33.49,33.49,0,0,1-13,12.6A38.16,38.16,0,0,1,321,71.8,41.36,41.36,0,0,1,302.4,67Zm33.5-5.7A27.08,27.08,0,0,0,346.3,51a29.23,29.23,0,0,0,3.8-14.7,29.23,29.23,0,0,0-3.8-14.7,27.08,27.08,0,0,0-10.4-10.3,29.55,29.55,0,0,0-14.8-3.7,30.05,30.05,0,0,0-14.9,3.7,27.27,27.27,0,0,0-10.5,10.3,29.23,29.23,0,0,0-3.8,14.7A29.23,29.23,0,0,0,295.7,51a26.67,26.67,0,0,0,10.5,10.3A30.05,30.05,0,0,0,321.1,65,28.6,28.6,0,0,0,335.9,61.3Z" transform="translate(0 0)"/>
  <path class="cls-2" d="M460.8,1.7,437.5,70.9h-7.7L409.5,11.8,389.1,70.9h-7.6L358.1,1.7h7.5l20,59.6L406.3,1.7h6.8l20.4,59.8L453.8,1.7Z" transform="translate(0 0)"/>
  <path class="cls-2" d="M517.2,64.7V71h-49V1.7h47.5V8H475.5V32.7h35.9v6.2H475.6V64.7Z" transform="translate(0 0)"/>
  <path class="cls-2" d="M575.8,71,559.9,48.7a50.54,50.54,0,0,1-5.5.3H535.8V71h-7.3V1.7h25.9c8.8,0,15.8,2.1,20.8,6.3s7.5,10,7.5,17.4a22.72,22.72,0,0,1-4.1,13.7,22.93,22.93,0,0,1-11.7,8.1l16.9,23.7h-8Zm-5.9-32.8c3.6-3,5.4-7.3,5.4-12.8s-1.8-9.9-5.4-12.9S561,8,554.2,8H535.8V42.7h18.4C561,42.8,566.3,41.3,569.9,38.2Z" transform="translate(0 0)"/>
  <path class="cls-1" d="M0,36.5v-.3C0,16.2,14.1.1,33.3.1,53.9.1,65.7,16.5,65.7,36.8c0,1.3,0,2.1-.1,3.4H10.5C12,55.2,22.6,63.7,35,63.7c9.5,0,16.3-3.9,21.9-9.8l6.5,5.8c-7,7.8-15.5,13-28.6,13C15.6,72.6,0,58,0,36.5Zm55.2-4C54.1,19.9,46.9,8.9,33,8.9,20.9,8.9,11.8,19,10.4,32.5Z" transform="translate(0 0)"/>
  <path class="cls-1" d="M71.5,36.6v-.3C71.5,16.7,86.8,0,107.1,0c13.2,0,21.4,5.5,27.8,12.4L128,19.7c-5.5-5.8-11.7-10.5-21.1-10.5C92.8,9.2,82,21.2,82,36.1v.3c0,15,11,27,25.5,27,8.9,0,15.7-4.4,21.2-10.3l6.6,6.2c-7,7.8-15.3,13.4-28.4,13.4C86.8,72.6,71.5,56.1,71.5,36.6Z" transform="translate(0 0)"/>
  <path class="cls-2" d="M577.6,2.6h-2.2V1.8h5.2v.8h-2.2V8.1h-.9V2.6Z" transform="translate(0 0)"/>
  <path class="cls-2" d="M587.5,8.2V3.6l-2.3,3.8h-.4l-2.3-3.8V8.2h-.9V1.9h.7l2.6,4.5,2.6-4.5h.7V8.2Z" transform="translate(0 0)"/>
</svg>
