<svg id="Layer_1" data-name="Layer 1" xmlns="http://www.w3.org/2000/svg" width="482.1" height="72.7" viewBox="0 0 482.1 72.7">
  <defs>
    <style>
      .cls-1 {
        fill:#61a744;
      }

      .cls-2 {
        fill:#58595b;
      }
    </style>
    
  </defs>
  <title>ecopole2</title>
  <path class="cls-1" d="M176.4,67.3a35.25,35.25,0,0,0-29.1-29.1,29.61,29.61,0,0,0-5.2-.4,43.82,43.82,0,0,0,.4,5.2,35.25,35.25,0,0,0,29.1,29.1,29.61,29.61,0,0,0,5.2.4A29.61,29.61,0,0,0,176.4,67.3ZM149.3,44.9a29.16,29.16,0,0,1,20.4,20.4A29.16,29.16,0,0,1,149.3,44.9Z" transform="translate(0 0)"/><path class="cls-1" d="M209.7,38.2a35.25,35.25,0,0,0-29.1,29.1,43.63,43.63,0,0,0-.5,5.2,43.82,43.82,0,0,0,5.2-.4A35.25,35.25,0,0,0,214.4,43a29.61,29.61,0,0,0,.4-5.2A29.22,29.22,0,0,0,209.7,38.2ZM187.3,65.3a29.16,29.16,0,0,1,20.4-20.4A29.16,29.16,0,0,1,187.3,65.3Z" transform="translate(0 0)"/><path class="cls-1" d="M214.4,29.9A35.25,35.25,0,0,0,185.3.8a29.61,29.61,0,0,0-5.2-.4,29.57,29.57,0,0,0,.5,5.2,35.25,35.25,0,0,0,29.1,29.1,29.61,29.61,0,0,0,5.2.4A29.57,29.57,0,0,0,214.4,29.9ZM187.3,7.5a29.16,29.16,0,0,1,20.4,20.4A29.16,29.16,0,0,1,187.3,7.5Z" transform="translate(0 0)"/><path class="cls-1" d="M171.7.8a35.25,35.25,0,0,0-29.1,29.1,29.61,29.61,0,0,0-.4,5.2,43.82,43.82,0,0,0,5.2-.4A35.25,35.25,0,0,0,176.5,5.6a29.61,29.61,0,0,0,.4-5.2A29.61,29.61,0,0,0,171.7.8ZM149.3,27.9A29.16,29.16,0,0,1,169.7,7.5,29.16,29.16,0,0,1,149.3,27.9Z" transform="translate(0 0)"/><path class="cls-1" d="M0,36.5v-.3C0,16.2,14.1.1,33.3.1,53.9.1,65.7,16.5,65.7,36.8c0,1.3,0,2.1-.1,3.4H10.5C12,55.2,22.6,63.7,35,63.7c9.5,0,16.3-3.9,21.9-9.8l6.5,5.8c-7,7.8-15.5,13-28.6,13C15.6,72.6,0,58,0,36.5Zm55.2-4C54.1,19.9,46.9,8.9,33,8.9,20.9,8.9,11.8,19,10.4,32.5Z" transform="translate(0 0)"/><path class="cls-1" d="M71.5,36.6v-.3C71.5,16.7,86.8,0,107.1,0c13.2,0,21.4,5.5,27.8,12.4L128,19.7c-5.5-5.8-11.7-10.5-21.1-10.5C92.8,9.2,82,21.2,82,36.1v.3c0,15,11,27,25.5,27,8.9,0,15.7-4.4,21.2-10.3l6.6,6.2c-7,7.8-15.3,13.4-28.4,13.4C86.8,72.6,71.5,56.1,71.5,36.6Z" transform="translate(0 0)"/><path class="cls-2" d="M471.5,2.6h-2.1V1.8h5.2v.8h-2.2V8.1h-.9Z" transform="translate(0 0)"/><path class="cls-2" d="M481.4,8.2V3.6l-2.3,3.8h-.4l-2.3-3.8V8.2h-.9V1.9h.7l2.6,4.5,2.6-4.5h.7V8.2Z" transform="translate(0 0)"/><path class="cls-2" d="M272.8,8.1q7.5,6.3,7.5,17.4c0,7.4-2.5,13.2-7.5,17.3s-11.9,6.3-20.8,6.3H233.4V70.9h-7.3V1.8H252C260.9,1.8,267.8,3.9,272.8,8.1Zm-5.2,30.1c3.6-3,5.4-7.2,5.4-12.7s-1.8-9.9-5.4-12.9-8.9-4.5-15.7-4.5H233.5V42.7h18.4C258.7,42.7,263.9,41.2,267.6,38.2Z" transform="translate(0 0)"/><path class="cls-2" d="M302.8,67a33.53,33.53,0,0,1-13-12.6,35,35,0,0,1-4.7-18,35.28,35.28,0,0,1,4.7-18,34.22,34.22,0,0,1,13-12.6,40.09,40.09,0,0,1,37.1-.1,33.49,33.49,0,0,1,13,12.6,34.57,34.57,0,0,1,4.7,18,35,35,0,0,1-4.7,18,33.49,33.49,0,0,1-13,12.6,38.09,38.09,0,0,1-18.5,4.5A35.56,35.56,0,0,1,302.8,67Zm33.4-5.6a27.08,27.08,0,0,0,10.4-10.3,29.27,29.27,0,0,0,3.8-14.7,29.27,29.27,0,0,0-3.8-14.7,27.08,27.08,0,0,0-10.4-10.3,29.57,29.57,0,0,0-14.8-3.7,30,30,0,0,0-14.9,3.7A28,28,0,0,0,296,21.7a29.27,29.27,0,0,0-3.8,14.7A29.27,29.27,0,0,0,296,51.1a26.67,26.67,0,0,0,10.5,10.3,29.68,29.68,0,0,0,14.9,3.7A30.36,30.36,0,0,0,336.2,61.4Z" transform="translate(0 0)"/><path class="cls-2" d="M368.2,1.8h7.3V64.7h38.7V71H368.1V1.8Z" transform="translate(0 0)"/><path class="cls-2" d="M469.4,64.7V71h-49V1.8h47.4V8.1H427.7V32.7h35.8v6.2H427.7V64.7Z" transform="translate(0 0)"/></svg>