<svg id="Layer_1" data-name="Layer 1" xmlns="http://www.w3.org/2000/svg" width="537.4" height="72.7" viewBox="0 0 537.4 72.7">
  <defs>
    <style>
      .cls-1 {
        fill: #61a744;
      }

      .cls-2 {
        fill: #58595b;
      }
    </style>
  </defs>
  <title>ecosolar2</title>
  <g>
    <path class="cls-1" d="M176.46,67.21a35.25,35.25,0,0,0-29.1-29.1,29.61,29.61,0,0,0-5.2-.4,43.82,43.82,0,0,0,.4,5.2A35.25,35.25,0,0,0,171.66,72a29.61,29.61,0,0,0,5.2.4A29.61,29.61,0,0,0,176.46,67.21Zm-27.1-22.4a29.16,29.16,0,0,1,20.4,20.4A29.16,29.16,0,0,1,149.36,44.81Z" transform="translate(-0.06 0.09)"/>
    <path class="cls-1" d="M209.76,38.11a35.25,35.25,0,0,0-29.1,29.1,43.63,43.63,0,0,0-.5,5.2,43.82,43.82,0,0,0,5.2-.4,35.25,35.25,0,0,0,29.1-29.1,29.61,29.61,0,0,0,.4-5.2A29.22,29.22,0,0,0,209.76,38.11Zm-22.4,27.1a29.16,29.16,0,0,1,20.4-20.4A29.16,29.16,0,0,1,187.36,65.21Z" transform="translate(-0.06 0.09)"/>
    <path class="cls-1" d="M214.46,29.81A35.25,35.25,0,0,0,185.36.71a29.61,29.61,0,0,0-5.2-.4,29.57,29.57,0,0,0,.5,5.2,35.25,35.25,0,0,0,29.1,29.1,29.61,29.61,0,0,0,5.2.4A29.57,29.57,0,0,0,214.46,29.81Zm-27.1-22.4a29.16,29.16,0,0,1,20.4,20.4A29.16,29.16,0,0,1,187.36,7.41Z" transform="translate(-0.06 0.09)"/>
    <path class="cls-1" d="M171.76.71a35.25,35.25,0,0,0-29.1,29.1,29.61,29.61,0,0,0-.4,5.2,43.82,43.82,0,0,0,5.2-.4,35.25,35.25,0,0,0,29.1-29.1,29.61,29.61,0,0,0,.4-5.2A29.61,29.61,0,0,0,171.76.71Zm-22.4,27.1a29.16,29.16,0,0,1,20.4-20.4A29.16,29.16,0,0,1,149.36,27.81Z" transform="translate(-0.06 0.09)"/>
  </g>
  <g>
    <path class="cls-1" d="M.06,36.41v-.3c0-20,14.1-36.1,33.3-36.1,20.6,0,32.4,16.4,32.4,36.7,0,1.3,0,2.1-.1,3.4H10.56c1.5,15,12.1,23.5,24.5,23.5,9.5,0,16.3-3.9,21.9-9.8l6.5,5.8c-7,7.8-15.5,13-28.6,13C15.66,72.51.06,57.91.06,36.41Zm55.2-4c-1.1-12.6-8.3-23.6-22.2-23.6-12.1,0-21.2,10.1-22.6,23.6Z" transform="translate(-0.06 0.09)"/>
    <path class="cls-1" d="M71.56,36.51v-.3c0-19.6,15.3-36.3,35.6-36.3,13.2,0,21.4,5.5,27.8,12.4l-6.9,7.3c-5.5-5.8-11.7-10.5-21.1-10.5-14.1,0-24.9,12-24.9,26.9v.3c0,15,11,27,25.5,27,8.9,0,15.7-4.4,21.2-10.3l6.6,6.2c-7,7.8-15.3,13.4-28.4,13.4C86.86,72.51,71.56,56,71.56,36.51Z" transform="translate(-0.06 0.09)"/>
  </g>
  <g>
    <path class="cls-2" d="M526.86,2.51h-2.2v-.8h5.2v.8h-2.2V8h-.9V2.51Z" transform="translate(-0.06 0.09)"/>
    <path class="cls-2" d="M536.76,8.11V3.51l-2.3,3.8h-.4l-2.3-3.8v4.6h-.9V1.81h.7l2.6,4.5,2.6-4.5h.7v6.3Z" transform="translate(-0.06 0.09)"/>
  </g>
  <g>
    <path class="cls-2" d="M230.16,68.41c-4.6-1.6-8.2-3.7-10.7-6.4l2.8-5.5a27.67,27.67,0,0,0,9.8,6,36.46,36.46,0,0,0,12.6,2.3c6.1,0,10.6-1.1,13.7-3.3a10.38,10.38,0,0,0,4.6-8.7,8.52,8.52,0,0,0-2.5-6.5,15.63,15.63,0,0,0-6.1-3.7c-2.4-.9-5.7-1.8-10-2.9a104,104,0,0,1-12.2-3.7,20.22,20.22,0,0,1-7.8-5.5c-2.2-2.5-3.2-5.8-3.2-10a16.84,16.84,0,0,1,2.7-9.3,18.18,18.18,0,0,1,8.3-6.7c3.7-1.7,8.4-2.5,13.9-2.5a39.75,39.75,0,0,1,11.4,1.6,32.66,32.66,0,0,1,9.6,4.4l-2.4,5.7a31.33,31.33,0,0,0-9.1-4.2,35.25,35.25,0,0,0-9.5-1.4c-5.9,0-10.4,1.1-13.4,3.4a10.64,10.64,0,0,0-4.5,8.9,8.52,8.52,0,0,0,2.5,6.5,17.54,17.54,0,0,0,6.2,3.8c2.5.9,5.8,1.8,10,2.9a97,97,0,0,1,12.1,3.6,19.57,19.57,0,0,1,7.8,5.4c2.1,2.4,3.2,5.7,3.2,9.8a16.16,16.16,0,0,1-2.8,9.3,19.46,19.46,0,0,1-8.5,6.7,36.14,36.14,0,0,1-14,2.5A47.48,47.48,0,0,1,230.16,68.41Z" transform="translate(-0.06 0.09)"/>
    <path class="cls-2" d="M291.16,66.31A32.94,32.94,0,0,1,278.36,54a33.76,33.76,0,0,1-4.6-17.6,33.76,33.76,0,0,1,4.6-17.6,32.94,32.94,0,0,1,12.8-12.3A37.31,37.31,0,0,1,309.46,2a36.66,36.66,0,0,1,18.2,4.5,33.36,33.36,0,0,1,12.7,12.3,34.37,34.37,0,0,1,4.6,17.7,34.37,34.37,0,0,1-4.6,17.7,32,32,0,0,1-12.7,12.3,36.66,36.66,0,0,1-18.2,4.5A37.16,37.16,0,0,1,291.16,66.31Zm32.7-5.5a26.74,26.74,0,0,0,10.2-10.1,28.09,28.09,0,0,0,3.7-14.4,28.09,28.09,0,0,0-3.7-14.4,26.07,26.07,0,0,0-10.2-10.1,29.42,29.42,0,0,0-14.5-3.6,30.08,30.08,0,0,0-14.6,3.6,26.32,26.32,0,0,0-10.3,10.1,28.09,28.09,0,0,0-3.7,14.4,28.09,28.09,0,0,0,3.7,14.4,26.32,26.32,0,0,0,10.3,10.1,29.8,29.8,0,0,0,14.6,3.6A29.15,29.15,0,0,0,323.86,60.81Z" transform="translate(-0.06 0.09)"/>
    <path class="cls-2" d="M353.26,2.41h7.2V64h38v6.2h-45.1V2.41Z" transform="translate(-0.06 0.09)"/>
    <path class="cls-2" d="M455,52.11h-37.8l-8.1,18.1h-7.5l31-67.8h7.1l31,67.8h-7.6Zm-2.6-5.8-16.3-36.4-16.3,36.4Z" transform="translate(-0.06 0.09)"/>
    <path class="cls-2" d="M524.26,70.21l-15.5-21.8a47.54,47.54,0,0,1-5.4.3h-18.2v21.5H478V2.41h25.4c8.7,0,15.4,2.1,20.3,6.2s7.4,9.8,7.4,17c0,5.3-1.3,9.8-4,13.4a22.51,22.51,0,0,1-11.5,7.9l16.6,23.2h-7.9Zm-5.7-32.1c3.6-3,5.3-7.1,5.3-12.5s-1.8-9.7-5.3-12.6-8.7-4.4-15.4-4.4h-18v34h18C509.86,42.61,515.06,41.11,518.56,38.11Z" transform="translate(-0.06 0.09)"/>
  </g>
</svg>
