<?xml version="1.0" encoding="utf-8"?>
<!-- Generator: Adobe Illustrator 16.0.0, SVG Export Plug-In . SVG Version: 6.00 Build 0)  -->
<!DOCTYPE svg PUBLIC "-//W3C//DTD SVG 1.1//EN" "http://www.w3.org/Graphics/SVG/1.1/DTD/svg11.dtd">
<svg version="1.1" id="Layer_1" xmlns="http://www.w3.org/2000/svg" xmlns:xlink="http://www.w3.org/1999/xlink" x="0px" y="0px"
	 width="302px" height="195px" viewBox="0 0 302 195" enable-background="new 0 0 302 195" xml:space="preserve">
<g>
	<path d="M301.137,133.257c0,16.975-5.982,31.42-17.914,43.297c-11.951,11.885-26.453,17.82-43.514,17.82H120.075
		c-17.068,0-31.562-5.936-43.503-17.82c-11.953-11.877-17.922-26.322-17.922-43.297V61.931c0-16.984,5.969-31.412,17.922-43.296
		C88.514,6.738,103.007,0.8,120.075,0.8H289.28v38.61H119.842c-6.298,0-11.604,2.185-15.921,6.575
		c-4.317,4.37-6.47,9.688-6.47,15.946v71.326c0,6.252,2.201,11.57,6.604,15.941c4.413,4.385,9.771,6.574,16.062,6.574h119.819
		c6.297,0,11.605-2.189,15.924-6.574c4.317-4.371,6.478-9.689,6.478-15.941v-11.801c0-6.26-2.16-11.572-6.478-15.949
		c-4.318-4.381-9.627-6.568-15.931-6.568H120.075V60.321h119.634c17.061,0,31.563,5.988,43.514,17.959
		c11.932,11.984,17.914,26.375,17.914,43.176V133.257z"/>
	<path fill="#FF0000" d="M1.137,26.719c0-11.393,9.28-20.631,20.739-20.631c11.442,0,20.736,9.238,20.736,20.631
		c0,11.398-9.294,20.644-20.736,20.644C10.417,47.363,1.137,38.117,1.137,26.719"/>
	<path fill="#00FF00" d="M1.137,96.722c0-11.393,9.28-20.633,20.739-20.633c11.442,0,20.736,9.24,20.736,20.633
		c0,11.393-9.294,20.645-20.736,20.645C10.417,117.366,1.137,108.114,1.137,96.722"/>
	<path fill="#0000FF" d="M1.137,166.731c0-11.404,9.28-20.646,20.739-20.646c11.442,0,20.736,9.242,20.736,20.646
		c0,11.391-9.294,20.641-20.736,20.641C10.417,187.372,1.137,178.122,1.137,166.731"/>
</g>
</svg>
