<?xml version="1.0" encoding="utf-8"?>
<!-- Generator: Adobe Illustrator 24.1.3, SVG Export Plug-In . SVG Version: 6.00 Build 0)  -->
<svg version="1.1" id="Capa_1" xmlns="http://www.w3.org/2000/svg" xmlns:xlink="http://www.w3.org/1999/xlink" x="0px" y="0px"
	 viewBox="0 0 954 516.2" style="enable-background:new 0 0 954 516.2;" xml:space="preserve">
<style type="text/css">
	.st0{fill:#FF503A;}
</style>
<g>
	<path class="st0" d="M120.8,397.6c-6.7,0-11.8,3.7-13.5,5.4v-23.1h-0.3c-3.1,1.6-8.4,3-12.4,3.4v0.3c5,1.2,6.5,2.1,6.5,9.1v43.6
		c2.8,0.9,10.8,1.9,14.7,1.9c10.2,0,22-7.5,22-22.4C137.7,404,129.6,397.6,120.8,397.6z M116.5,436.8c-3.8,0-7.6-1.9-9.2-2.8v-29.8
		c1.9-1.2,5.1-3.1,9.5-3.1c7.7,0,14.1,5.9,14.1,16.9C130.9,429.9,124.2,436.8,116.5,436.8z"/>
	<path class="st0" d="M171.6,428.5v-20.3c0-7-4.6-10.6-11.4-10.6c-7.4,0-15.7,4-15.7,9c0,2.4,1.9,3.8,3.7,3.8c1.8,0,3.6-1.2,3.6-3.4
		c0-2.2-1.7-3.5-4.2-4c1.3-1.2,4.3-2.8,8.7-2.8c6.5,0,9.3,3.9,9.3,11v4.7c-17.2,0.7-22.3,6.6-22.3,12.7c0,6.4,5.1,9.8,10.3,9.8
		c5,0,9.8-3.3,12.1-5.3c0.1,3.3,2.2,5,4.8,5c2.7,0,8.1-1.9,8.6-2.1v-0.3C174.9,435.2,171.6,434.8,171.6,428.5z M165.6,432.5
		c-1.7,1-5,2.1-7.8,2.1c-4.7,0-8.2-2.5-8.2-7.6c0-6.1,4.7-9.6,11.9-9.6c1.6,0,3.3,0.2,4.1,0.4V432.5z"/>
	<path class="st0" d="M193.7,427.8v-30.2h-0.3c-3.1,1.4-7.9,3.2-12.2,3.4v0.3c5.7,1.6,6.5,2.9,6.5,9.6v16.8c0,6.5-1.1,7.9-5.6,9.3
		v0.3h18.2v-0.3C194.9,435.8,193.7,434.3,193.7,427.8z"/>
	<path class="st0" d="M202.8,397.6c-2.4,0-4.3,1.9-4.3,4.3c0,2.4,1.9,4.4,4.3,4.4c2.4,0,4.4-1.9,4.4-4.4
		C207.1,399.5,205.2,397.6,202.8,397.6z"/>
	<path class="st0" d="M230.3,433.6c-7.6,0-14.3-5.4-14.3-17.2c0-10.1,4.6-17.2,13-17.2c1.5,0,3.1,0.2,4.2,0.6
		c-1.4,0.8-2.4,2.8-2.4,4.6c0,2.3,1.9,3.9,4.1,3.9c2.6,0,4.4-2.1,4.4-4.5c0-4.1-5.6-6.2-10.7-6.2c-10.6,0-19.1,8.7-19.1,21.4
		c0,12.2,7.8,19.3,17,19.3c8,0,13.3-5.8,14.8-8.3l-0.5-0.4C238.8,431.4,235.1,433.6,230.3,433.6z"/>
	<path class="st0" d="M264.8,433.5c-8,0-14-6.1-14-16.6v-2.1h25.8c0.1-0.9,0.1-1.1,0.1-2c0-12.4-6.9-15.3-14-15.3
		c-9.3,0-18.3,8-18.3,21.5c0,11.9,7.5,19.2,17.2,19.2c8.7,0,13.8-6.3,15.4-9l-0.4-0.3C274.2,431,270.3,433.5,264.8,433.5z
		 M261.9,399.3c5.1,0,8.6,3.7,8.6,13.4l-19.5,0.7C251.9,404,256.5,399.3,261.9,399.3z"/>
	<path class="st0" d="M294.3,428v-48.1H294c-3.1,1.6-8.4,3-12.4,3.4v0.3c5.5,1.3,6.5,2.4,6.5,9.1V428c0,6.2-1.1,7.7-5.6,9.1v0.3
		h17.4v-0.3C295.4,435.7,294.3,434.3,294.3,428z"/>
	<path class="st0" d="M325,397.6c-10.5,0-19.7,8.6-19.7,20.2c0,11.4,8.8,20.5,19.7,20.5c10.8,0,19.8-9.2,19.8-20.5
		C344.8,406.2,335.5,397.6,325,397.6z M325,436.8c-8.8,0-12.6-9.9-12.6-18.9c0-9.8,4.5-18.7,12.6-18.7s12.6,8.8,12.6,18.7
		C337.6,426.8,333.9,436.8,325,436.8z"/>
	<path class="st0" d="M388.3,427.8v-17.1c0-9.7-5.3-13.1-11.1-13.1c-5.7,0-11.4,4-14,6.2v-6.2h-0.3c-3,1.3-7.8,2.7-12.1,3v0.3
		c5.7,1.6,6.5,2.4,6.5,10.9V428c0,6.3-1.1,7.7-5.6,9.1v0.3h17.2v-0.3c-4.5-1.4-5.6-2.8-5.6-9.1v-23.2c2.8-1.6,6.7-3.3,10.6-3.3
		c5.1,0,8.5,2.9,8.5,9.1v17.2c0,6.4-1.1,7.9-5.6,9.3v0.3h17.2v-0.3C389.3,435.7,388.3,434.2,388.3,427.8z"/>
	<path class="st0" d="M427.5,428.5v-20.3c0-7-4.6-10.6-11.5-10.6c-7.4,0-15.7,4-15.7,9c0,2.4,1.9,3.8,3.7,3.8c1.8,0,3.6-1.2,3.6-3.4
		c0-2.2-1.7-3.5-4.2-4c1.3-1.2,4.3-2.8,8.7-2.8c6.5,0,9.3,3.9,9.3,11v4.7c-17.2,0.7-22.3,6.6-22.3,12.7c0,6.4,5.1,9.8,10.3,9.8
		c5.1,0,9.8-3.3,12.1-5.3c0.2,3.3,2.2,5,4.8,5c2.7,0,8.1-1.9,8.6-2.1v-0.3C430.8,435.2,427.5,434.8,427.5,428.5z M421.5,432.5
		c-1.7,1-5,2.1-7.8,2.1c-4.7,0-8.2-2.5-8.2-7.6c0-6.1,4.7-9.6,11.9-9.6c1.6,0,3.3,0.2,4.1,0.4V432.5z"/>
	<path class="st0" d="M466,428v-48.1h-0.3c-3.1,1.6-8.4,3-12.4,3.4v0.3c5.5,1.3,6.5,2.4,6.5,9.1V428c0,6.2-1.1,7.7-5.5,9.1v0.3h17.4
		v-0.3C467.1,435.7,466,434.3,466,428z"/>
	<path class="st0" d="M487.9,428v-30.4h-0.3c-3,1.3-7.9,2.7-12.2,3v0.3c5.3,1.5,6.5,2.5,6.5,9.2V428c0,6.2-1.1,7.7-5.6,9.1v0.3h17.1
		v-0.3C489,435.7,487.9,434.3,487.9,428z"/>
	<path class="st0" d="M480.7,387.5c0,2.3,1.8,4.1,4.1,4.1c2.2,0,4.1-1.8,4.1-4.1c0-2.2-1.9-4.1-4.1-4.1
		C482.5,383.4,480.7,385.3,480.7,387.5z"/>
	<path class="st0" d="M514.8,397.6c-7.9,0-14.5,5.3-14.5,13.6c0,6,3.5,10.2,8,12.3c-4.6,2.9-6.2,5.8-6.2,8.5c0,2.5,2.3,4.4,5.7,5.1
		c-2.7,1-11.1,4-11.1,10.1c0,5.9,7.9,8.6,15.5,8.6c10.2,0,22.8-4.8,22.8-14.6c0-6.5-4.9-8.5-12.7-8.9l-10.9-0.5
		c-3.5-0.2-4.9-1.5-4.9-3.3c0-1.5,1.1-3.2,2.7-4.7c1.9,0.8,4,1.1,6.1,1.1c8.2,0,14.7-5.9,14.7-13.7c0-4.3-2-7.6-4.4-9.5l10,1
		l0.6-5.1l-12.5,2.4C521,398.4,518.1,397.6,514.8,397.6z M509.8,437.3l12.4,0.5c5.6,0.2,7.9,2.2,7.9,5.9c0,6.3-7.3,10.1-15.4,10.1
		c-7.5,0-12.3-3.3-12.3-8.4c0-4.2,3.4-6.9,6.2-8.4C508.9,437.3,509.4,437.3,509.8,437.3z M515.2,423.4c-5.7,0-8.3-6.3-8.3-12.3
		c0-6.5,3-12.1,8.3-12.1c5.4,0,8.3,5.9,8.3,12.3C523.5,417.5,520.7,423.4,515.2,423.4z"/>
	<path class="st0" d="M575.8,426v-15.3c0-9.8-5.2-13.2-11.4-13.2c-5.6,0-11.6,4.4-13.7,6.2v-23.9h-0.3c-3.1,1.4-8.1,3.2-12.4,3.4
		v0.3c5.7,1.6,6.5,2.9,6.5,9.6v34.6c0,6.4-1.1,7.9-5.6,9.3v0.3h17.4v-0.3c-4.5-1.2-5.6-2.7-5.6-9.3v-23c2.7-1.6,6.8-3.3,10.6-3.3
		c5,0,8.5,2.9,8.5,9.1v17.2c0,6.4-1.1,7.9-5.6,9.3v0.3h17.2v-0.3C576.5,435.7,575.8,434.2,575.8,426z"/>
	<path class="st0" d="M603.6,434.1c-4,0-6.4-2.3-6.4-7.1v-25.7h10.5v-2.8h-10.5v-9.1h-0.3c-3.1,5.2-5.4,8-8.9,10l-3.1,1.7v0.3h6.1
		v24.3c0,8.8,3.2,12.3,8.6,12.3c5,0,8.5-3.1,10.4-4.9l-0.3-0.4C607.7,433.6,605.4,434.1,603.6,434.1z"/>
	<path class="st0" d="M618.3,405.8c0-4,3.4-6.6,7-6.6c3.9,0,7.8,3.1,10.7,9.9h0.4v-9.2c-3.5-1.4-6.9-2.2-9.9-2.2
		c-6.8,0-12.6,3.9-12.6,10.6c0,13.4,20.3,12,20.3,21.6c0,3.9-3.5,7-7.8,7c-4.9,0-9.2-3.8-12.6-11.7h-0.3v10.1
		c4.1,2.2,8.3,3.2,11.9,3.2c8.2,0,13.5-4.7,13.5-11.3C638.9,413.4,618.3,415.1,618.3,405.8z"/>
	<path class="st0" d="M872.9,159.5c-5.6-6-14.2-9.5-23.5-9.5c-10,0-19.5,4.6-25.6,12.2c-0.2,0.2-0.2,0.5,0,0.7
		c0.1,0.2,0.4,0.3,0.7,0.3c1.1-0.3,2.3-0.5,3.5-0.5c8.1,0,11.1,7.4,13.3,12.8c2,5,4.5,11.1,11.6,14.2c2.9,1.3,5.8,1.9,8.7,1.9
		c9.3,0,16.7-7.1,17.4-16.5C879.3,169.7,877.2,164.1,872.9,159.5z"/>
	<path class="st0" d="M334.4,321.4c0.1,0,0.2,0,0.3,0c0.1-0.1,0.3-0.2,0.3-0.2c0.2-0.3,0.2-0.6,0-0.8c-25.1-26-28.8-64.2-28.8-84.6
		c0-34.7,12.3-65.8,32.9-83.3c0.2-0.2,0.3-0.5,0.1-0.8c-0.1-0.3-0.4-0.4-0.7-0.3c-37.7,9.3-64,44.1-64,84.4
		c0,40.4,26.8,78.8,59.8,85.7H334.4z"/>
	<path class="st0" d="M375.1,151.3c-0.3-0.1-0.6,0.1-0.7,0.3c-0.1,0.3-0.1,0.6,0.2,0.8c20.6,17.4,32.9,48.6,32.9,83.3
		c0,20.5-3.7,58.6-28.7,84.6c-0.2,0.2-0.2,0.5-0.1,0.8c0.1,0.2,0.3,0.3,0.5,0.3c0.1,0,0.1,0,0.1,0c33-6.9,59.8-45.4,59.8-85.7
		C439.1,195.3,412.8,160.6,375.1,151.3z"/>
	<path class="st0" d="M464.2,190.7L516,324.5c0.1,0.3,0.3,0.4,0.6,0.4l4.8,0c0.3,0,0.5-0.2,0.6-0.4l9.7-30.8c0-0.1,0-0.3,0-0.4
		l-37.9-104.6c-3.9-11.9-3.7-21.6,0.5-27.4c2.7-3.8,7.1-5.7,12.9-5.7c0.4,0,0.6-0.3,0.6-0.6c0-0.4-0.3-0.6-0.6-0.6l-74.2,0.1
		c-0.3,0-0.6,0.3-0.6,0.6c0,0.3,0.2,0.6,0.5,0.7c17.9,3,24.6,19,30,31.8C463.3,188.6,463.7,189.7,464.2,190.7z"/>
	<path class="st0" d="M540.1,155.6c20.1,2.8,24,11.2,25.2,19.1l0.1,0.7c1,6.1,2.7,17.4-2.7,35.3c-0.1,0.3,0.1,0.7,0.4,0.8
		c0.1,0,0.2,0.1,0.2,0.1c0.3,0,0.5-0.1,0.6-0.4c9.2-22.3,29.9-55.6,49.1-55.6c0.4,0,0.6-0.3,0.6-0.7c0-0.4-0.3-0.6-0.6-0.6
		l-72.9,0.1c-0.3,0-0.6,0.3-0.6,0.6C539.5,155.2,539.8,155.6,540.1,155.6z"/>
	<path class="st0" d="M726.5,168.4c-10.1-10.8-24-16.9-39-17.3h0c-0.3,0-0.6,0.2-0.6,0.5c-0.1,0.3,0.1,0.6,0.4,0.7
		c18.2,6.4,28.2,28,28.2,60.9v0.3l-46.8,12c-0.3,0.1-0.5,0.4-0.5,0.7c0,0.3,0.3,0.5,0.6,0.5l75.8-0.1c0.2,0,0.3-0.1,0.5-0.2
		c0.1-0.1,0.2-0.3,0.1-0.5l0-0.2C745.3,200.9,738.9,181.6,726.5,168.4z"/>
	<path class="st0" d="M738.2,283.3c-14.7,9.8-34.7,15.5-53.6,15.5c-32.5,0-53.4-26.7-53.4-68c0-42.1,8.7-65,30.2-78.8
		c0.3-0.2,0.3-0.5,0.2-0.8c-0.1-0.3-0.4-0.4-0.7-0.4c-36.6,7.5-58.5,40.1-58.5,87.1c0,50.8,30.4,86.2,74,86.2
		c37,0,59.3-32.1,62.8-40.1c0.1-0.3,0-0.6-0.2-0.8C738.8,283.2,738.5,283.2,738.2,283.3z"/>
	<path class="st0" d="M831.2,319.2c-14.9-0.8-24.6-15.2-24.6-36.7V147.6c0-0.2-0.1-0.5-0.3-0.6c-0.2-0.1-0.5-0.1-0.6,0
		c-13.7,9.1-40.2,16.9-52.2,16.9c-0.3,0-0.6,0.2-0.6,0.6c0,0.3,0.2,0.6,0.5,0.7c7.9,1.2,26.4,7.3,26.4,37.8v79.5
		c0,25.9-15.3,36.7-23.5,36.7c-0.4,0-0.7,0.3-0.7,0.6c0,0.4,0.3,0.6,0.7,0.6h74.9c0.3,0,0.6-0.3,0.6-0.6
		C831.8,319.5,831.5,319.2,831.2,319.2z"/>
	<path class="st0" d="M102,317.4c0,0.2,0.1,0.4,0.3,0.5c0.1,0.1,0.2,0.1,0.3,0.1c0.1,0,0.2,0,0.3-0.1l26.9-13.9
		c0.2-0.1,0.3-0.3,0.3-0.6l0-240.3c0-0.2-0.1-0.4-0.3-0.6c-0.2-0.1-0.4-0.1-0.7,0C113,74.5,87.7,79.9,75.6,79.9
		c-0.3,0-0.6,0.2-0.6,0.5c-0.1,0.3,0.1,0.6,0.5,0.7C94,86.6,102,100.4,102,127.3V317.4z"/>
	<path class="st0" d="M147.5,173.5c9.1-6,19.6-9.5,28.7-9.5c4.6,0,44.9,1.9,44.9,70c0,39.1-11.5,68.5-30.1,76.9
		c-7.2,3.2-14,4-22,2.2c-0.3-0.1-0.6,0.1-0.7,0.4l-0.5,1.8c-0.1,0.2,0,0.3,0.1,0.5c0.1,0.1,0.2,0.3,0.4,0.3
		c2.8,0.6,8.9,1.2,13.6,1.2c0.5,0,1.1,0,1.6,0c20.7-0.8,38-10.1,50.2-26.8c11.7-16.1,17.9-37.9,17.9-62.9
		c0-48.4-23.1-78.4-60.4-78.4c-20.7,0-29.7,8.9-42.2,21.2l-2.1,2.1c-0.2,0.2-0.3,0.6-0.1,0.9C146.9,173.6,147.2,173.7,147.5,173.5z"
		/>
</g>
</svg>
