<?xml version="1.0" encoding="utf-8"?>
<!-- Generator: Adobe Illustrator 16.0.0, SVG Export Plug-In . SVG Version: 6.00 Build 0)  -->
<!DOCTYPE svg PUBLIC "-//W3C//DTD SVG 1.1//EN" "http://www.w3.org/Graphics/SVG/1.1/DTD/svg11.dtd">
<svg version="1.1" id="Layer_1" xmlns="http://www.w3.org/2000/svg" xmlns:xlink="http://www.w3.org/1999/xlink" x="0px" y="0px"
	 width="102px" height="80px" viewBox="0 0 102 80" enable-background="new 0 0 102 80" xml:space="preserve">
<g>
	<path fill="#F05222" d="M102,54.539C102,68.602,90.431,80,76.157,80H25.843C11.571,80,0,68.602,0,54.539V25.46
		C0,11.398,11.571,0,25.843,0h50.314C90.431,0,102,11.398,102,25.46V54.539z"/>
	<g>
		<path fill="#FFFFFF" d="M78.432,45.322c0-7.983-2.661-10.645-10.643-10.645c0-2.658,0-5.32,0-7.98
			c0-7.938-7.983-13.304-13.304-13.304H41.184c-9.278,0-15.965,6.718-15.965,15.964v21.285c0,9.225,6.687,15.964,15.965,15.964
			h21.283c9.271,0,15.906-6.737,15.965-15.964C78.432,50.643,78.432,47.98,78.432,45.322z M42.512,26.697c0.468,0,10.177,0,10.644,0
			c2.203,0,3.99,1.788,3.99,3.991s-1.787,3.989-3.99,3.989c-0.467,0-10.176,0-10.644,0c-2.203,0-3.989-1.786-3.989-3.989
			S40.309,26.697,42.512,26.697z M61.137,53.302c-0.467,0-18.157,0-18.625,0c-2.203,0-3.989-1.788-3.989-3.99
			c0-2.203,1.786-3.989,3.989-3.989c0.468,0,18.158,0,18.625,0c2.204,0,3.991,1.786,3.991,3.989
			C65.128,51.514,63.341,53.302,61.137,53.302z"/>
	</g>
</g>
</svg>
