<?xml version="1.0" encoding="utf-8"?>
<!-- Generator: Adobe Illustrator 16.0.0, SVG Export Plug-In . SVG Version: 6.00 Build 0)  -->
<!DOCTYPE svg PUBLIC "-//W3C//DTD SVG 1.1//EN" "http://www.w3.org/Graphics/SVG/1.1/DTD/svg11.dtd">
<svg version="1.1" id="Layer_1" xmlns="http://www.w3.org/2000/svg" xmlns:xlink="http://www.w3.org/1999/xlink" x="0px" y="0px"
	 width="308.448px" height="245.556px" viewBox="0 0 308.448 245.556" enable-background="new 0 0 308.448 245.556"
	 xml:space="preserve">
<path fill="#F05222" d="M308.448,167.406c0,43.162-34.988,78.149-78.148,78.149H78.149C34.989,245.556,0,210.568,0,167.406V78.149
	C0,34.988,34.989,0,78.149,0H230.3c43.16,0,78.148,34.988,78.148,78.149V167.406z"/>
<g>
	<path fill="#FFFFFF" d="M250.308,141.639c0-28.291-9.432-37.722-37.723-37.722c0-9.431,0-18.861,0-28.292
		c0-28.14-28.293-47.153-47.153-47.153h-47.154c-32.883,0-56.584,23.812-56.584,56.584V160.5c0,32.695,23.701,56.584,56.584,56.584
		h75.446c32.859,0,56.381-23.881,56.584-56.584C250.308,160.5,250.308,151.07,250.308,141.639z M122.992,75.625
		c1.658,0,36.066,0,37.723,0c7.811,0,14.146,6.336,14.146,14.146s-6.336,14.146-14.146,14.146c-1.656,0-36.064,0-37.723,0
		c-7.809,0-14.145-6.336-14.145-14.146S115.184,75.625,122.992,75.625z M189.009,169.932c-1.658,0-64.358,0-66.017,0
		c-7.809,0-14.145-6.336-14.145-14.146s6.336-14.146,14.145-14.146c1.658,0,64.358,0,66.017,0c7.809,0,14.145,6.336,14.145,14.146
		S196.817,169.932,189.009,169.932z"/>
</g>
</svg>
