<?xml version="1.0" encoding="utf-8"?>
<!-- Generator: Adobe Illustrator 16.0.0, SVG Export Plug-In . SVG Version: 6.00 Build 0)  -->
<!DOCTYPE svg PUBLIC "-//W3C//DTD SVG 1.1 Tiny//EN" "http://www.w3.org/Graphics/SVG/1.1/DTD/svg11-tiny.dtd">
<svg version="1.1" baseProfile="tiny" id="Layer_1" xmlns="http://www.w3.org/2000/svg" xmlns:xlink="http://www.w3.org/1999/xlink"
	 x="0px" y="0px" width="102px" height="80px" viewBox="0 0 102 80" xml:space="preserve">
<g>
	<g>
		<path fill="#BBBBBB" d="M102,54.539C102,68.602,90.43,80,76.158,80H25.842C11.57,80,0,68.602,0,54.539V25.46
			C0,11.398,11.57,0,25.842,0h50.316C90.43,0,102,11.398,102,25.46V54.539z"/>
	</g>
	<g>
		<path fill="#B31E3B" d="M7.481,25.688h16.431c4.917,0,9.274,2.437,9.274,7.313c0,2.523-1.54,4.521-3.944,5.435
			c3.331,0.917,5.737,3.185,5.737,6.664c0,4.879-4.257,7.922-9.888,7.922H7.481V25.688z M13.426,36.614h9.815
			c2.615,0,4.001-1.44,4.001-3.094c0-1.607-1.386-3.041-4.001-3.041h-9.815V36.614z M13.426,48.229h10.996
			c2.66,0,4.61-1.478,4.61-3.395c0-1.96-1.95-3.441-4.61-3.441H13.426V48.229z"/>
		<polygon points="43.031,36.901 43.031,53.021 37.084,53.021 37.084,25.125 57.846,41.807 57.846,25.688 63.792,25.688 
			63.792,53.591 		"/>
		<polygon points="73.348,36.901 73.348,53.021 67.404,53.021 67.404,25.125 88.158,41.807 88.158,25.688 94.109,25.688 
			94.109,53.591 		"/>
	</g>
</g>
</svg>
