<?xml version="1.0" encoding="utf-8"?>
<!-- Generator: Adobe Illustrator 16.0.0, SVG Export Plug-In . SVG Version: 6.00 Build 0)  -->
<!DOCTYPE svg PUBLIC "-//W3C//DTD SVG 1.1//EN" "http://www.w3.org/Graphics/SVG/1.1/DTD/svg11.dtd">
<svg version="1.1" id="Layer_1" xmlns="http://www.w3.org/2000/svg" xmlns:xlink="http://www.w3.org/1999/xlink" x="0px" y="0px"
	 width="102px" height="80px" viewBox="0 0 102 80" enable-background="new 0 0 102 80" xml:space="preserve">
<g>
	<path fill="#CB0000" d="M102,54.541C102,68.604,90.429,80,76.157,80H25.842C11.569,80,0,68.604,0,54.541V25.46
		C0,11.398,11.569,0,25.842,0h50.315C90.429,0,102,11.398,102,25.46V54.541z"/>
	<g>
		<path fill="#FFFFFF" stroke="#CB0000" stroke-miterlimit="10" d="M33.98,20.68c0-0.019-7.48,0-7.48,0
			c-11.069,0-20.044,8.974-20.044,20.044c0,11.072,8.975,20.047,20.044,20.047l14.063-0.013c3.533,0,6.397-2.841,6.397-6.374
			l0.006-12.227l9.72,15.332c1.314,1.987,3.571,3.3,6.135,3.3c4.058,0,7.346-3.29,7.346-7.345l-0.002-11.287l9.72,15.332
			c1.315,1.987,3.571,3.3,6.136,3.3c4.057,0,7.345-3.29,7.345-7.345l-0.002-32.783h-5v32.783c0,1.294-1.05,2.342-2.343,2.342
			c-0.811,0-1.523-0.41-1.944-1.033l-17.301-27.25c-0.158-0.231-0.426-0.384-0.729-0.384c-0.489,0-0.887,0.397-0.887,0.887
			l0.006,25.438c0,1.294-1.049,2.342-2.344,2.342c-0.809,0-1.522-0.41-1.943-1.033l-17.299-27.25
			c-0.16-0.231-0.429-0.384-0.731-0.384c-0.489,0-0.886,0.397-0.886,0.887l-0.005,26.378c0,0.77-0.623,1.394-1.394,1.394
			L26.5,55.767c-8.307,0-15.041-6.734-15.041-15.043c0-8.307,6.734-15.041,15.041-15.041l7.48-0.006V20.68z"/>
		<path fill="#FFFFFF" stroke="#CB0000" stroke-miterlimit="10" d="M34.786,49.342c0.394,0,0.712-0.32,0.712-0.713L35.5,28.006
			c0-4.058,3.289-7.347,7.347-7.347c2.572,0,4.835,1.321,6.148,3.323l9.686,15.193l0.018-11.17c0-4.058,3.289-7.347,7.347-7.347
			c2.572,0,4.835,1.321,6.148,3.323l9.686,15.193V20.661h5.035l-0.009,32.783c0,0.489-0.398,0.887-0.886,0.887
			c-0.292,0-0.55-0.141-0.711-0.356l-17.32-27.279c-0.421-0.623-1.135-1.033-1.943-1.033c-1.295,0-2.344,1.05-2.344,2.344
			l0.006,25.438c0,0.489-0.396,0.887-0.887,0.887c-0.29,0-0.548-0.141-0.71-0.356L44.79,26.695
			c-0.421-0.623-1.135-1.033-1.943-1.033c-1.295,0-2.344,1.05-2.344,2.344l0.011,25.64c0,0.393-0.319,0.713-0.712,0.713L26.5,54.354
			c-7.502,0-13.584-6.127-13.584-13.63c0-7.502,6.082-13.629,13.584-13.629c0,0,7.48-0.03,7.48,0c0,0.028,0,5.054,0,5.054
			l-7.48-0.006c-4.739,0-8.581,3.843-8.581,8.581c0,4.74,3.842,8.627,8.581,8.627L34.786,49.342z"/>
	</g>
</g>
</svg>
