<?xml version="1.0" encoding="utf-8"?>
<!-- Generator: Adobe Illustrator 16.0.0, SVG Export Plug-In . SVG Version: 6.00 Build 0)  -->
<!DOCTYPE svg PUBLIC "-//W3C//DTD SVG 1.1 Tiny//EN" "http://www.w3.org/Graphics/SVG/1.1/DTD/svg11-tiny.dtd">
<svg version="1.1" baseProfile="tiny" id="Layer_1" xmlns="http://www.w3.org/2000/svg" xmlns:xlink="http://www.w3.org/1999/xlink"
	 x="0px" y="0px" width="102px" height="80px" viewBox="0 0 102 80" xml:space="preserve">
<g>
	<g>
		<path fill="#333333" d="M102,54.539c0,14.063-11.57,25.463-25.844,25.463H25.842C11.569,80.002,0,68.604,0,54.539V25.46
			C0,11.398,11.569,0,25.842,0h50.314C90.43,0,102,11.398,102,25.46V54.539z"/>
	</g>
	<g>
		<g>
			<path fill="#969696" d="M79.75,76.223c-0.6-3.154-7.188-13.354-13.738-20.315c-1.809-1.923-5.902-5.604-10.272-8.402
				c3.991-0.33,7.686-0.94,10.618-1.782c5.056-1.449,13.564-5.419,13.371-11.089c-0.076-2.29-1.987-9.997-23.367-13.045
				c-0.077-0.012-0.155-0.018-0.233-0.018c-0.782,0-1.479,0.552-1.637,1.34c-0.177,0.867,0.356,1.721,1.215,1.946
				c9.233,2.422,13.438,5.582,13.512,7.641c0.093,2.551-3.168,5.052-8.938,6.86c-3.416,1.07-7.521,1.742-18.284,1.983
				c-0.571-0.231-1.757-0.666-3.7-1.152c-2.078-0.519-4.44-0.89-6.537-1.038c1.396-3.012,4.551-8.903,10.478-15.854
				C50.979,13.04,57.742,9.607,62.068,7.916c0.69-0.27,1.121-0.961,1.059-1.698c-0.064-0.738-0.605-1.347-1.33-1.493
				c-0.057-0.011-1.367-0.273-3.203-0.273c-1,0-1.979,0.077-2.912,0.229c-2.998,0.488-6.988,1.747-13.847,7.377
				c-3.409,2.8-10.148,10.372-13.725,15.938c-3.241,5.048-4.877,8.884-5.803,11.205c-1.225-0.205-3.259-0.79-5.651-1.94
				c-3.423-1.646-5.873-4.063-5.58-5.498c0.169-0.822-0.298-1.64-1.089-1.914c-0.181-0.063-0.365-0.092-0.546-0.092
				c-0.617,0-1.204,0.344-1.494,0.924c-1.493,2.986-0.827,7.609,3.334,10.667c1.662,1.221,4.877,3.262,8.989,4.328
				c-1.66,6.318-1.241,11.521,1.238,15.121c1.576,2.289,4.627,3.709,7.964,3.709c0.604,0,1.218-0.045,1.826-0.137
				c5.363-0.809,12.812-5.4,17.801-10.885c1.961,0.994,3.76,2.041,5.365,3.121c3.972,2.672,7.095,5.146,10.775,8.535
				c3.393,3.116,7.073,7.08,11.596,12.465c0.322,0.391,0.795,0.6,1.276,0.6c0.24,0,0.486-0.055,0.716-0.162
				C79.512,77.717,79.893,76.969,79.75,76.223z M45.396,51.76c-1.716,1.295-3.552,2.563-4.771,3.273
				C37.638,56.775,35,57.66,32.789,57.66c-1.949,0-2.917-0.719-3.167-0.939c-1.112-0.979-1.609-2.854-1.521-5.738
				c0.046-1.483,0.229-2.729,0.396-3.59c2.649,0.23,5.624,0.689,7.641,1.195C39.095,49.332,42.307,50.436,45.396,51.76z"/>
			<path fill="#969696" d="M54.152,14.051c-4.188,0-7.596,3.407-7.596,7.595s3.409,7.596,7.596,7.596
				c4.188,0,7.596-3.407,7.596-7.596C61.748,17.458,58.342,14.051,54.152,14.051z"/>
		</g>
		<path fill="#FFFFFF" d="M56.473,13.963c3.273,0,5.926,2.653,5.926,5.925s-2.651,5.926-5.926,5.926
			c-3.273,0-5.925-2.653-5.925-5.926C50.547,16.617,53.199,13.963,56.473,13.963 M56.473,12.293c-4.188,0-7.595,3.407-7.595,7.595
			s3.406,7.596,7.595,7.596c4.189,0,7.596-3.407,7.596-7.596C64.068,15.701,60.662,12.293,56.473,12.293L56.473,12.293z"/>
		<path fill="none" d="M65.064,4.32c-0.5-1.94-3.844-1.831-6.181-1.533c-2.432,0.311-7.439,2.337-11.352,5.187
			C39.736,13.652,29.059,25.15,24.67,37.6c-3.783-0.653-10.437-3.609-11.089-6.132c-0.392-2.001-0.87-3.045-2.696-2.609
			c-1.826,0.435-2.132,4.957-0.087,7.436c2.665,3.232,6.496,5.611,12.002,7.219c-2.087,7.525-1.608,15.875,4.697,18.355
			c7.25,2.848,16.487-3.551,21.047-7.48c1.263-1.088,3.045-2.654,3.045-2.654s6.479,3.045,13.652,9.396
			c7.178,6.348,13.481,14.09,13.481,14.09s1.002,1.434,2.609,0.781c1.607-0.654-0.566-4.348-0.566-4.348s-3.014-6.199-8.293-12.762
			c-6.088-7.566-15.418-13.338-14.797-12.984c0,0,6.652-0.348,13.045-2.695c6.394-2.35,9.967-5.385,10.748-7.559
			c0.783-2.174,0.576-4.543-0.703-6.271c-3.146-4.262-9.104-7.151-16.723-8.777c0.309-5.908-5.113-9.811-10.563-7.645
			c2.315-1.986,2.68-2.559,5.389-4.094C62.639,6.731,65.461,5.856,65.064,4.32z"/>
		<g>
			<path fill="#3666A6" d="M51.1,49.738c-0.033-0.018-0.066-0.031-0.101-0.049c-2.054,1.703-5.174,3.971-7.119,5.104
				c-3.708,2.162-6.568,2.854-8.678,2.854c-2.194,0-3.578-0.746-4.271-1.354c-1.63-1.438-2.186-3.883-2.087-7.047
				c0.098-3.164,0.771-5.306,0.771-5.306c3.163,0.183,6.962,0.746,9.341,1.343c3.737,0.938,8.009,2.473,12.043,4.403
				c0.155-0.127,0.306-0.256,0.448-0.375C51.334,49.457,51.217,49.596,51.1,49.738c2.373,1.143,4.66,2.422,6.707,3.799
				c4.346,2.924,7.512,5.504,10.978,8.691c3.358,3.09,7.055,7.035,11.741,12.623c-0.487-2.578-6.733-12.492-13.313-19.48
				c-2.642-2.809-9.748-8.932-15.401-10.949c6.881-0.033,12.752-0.914,16.502-1.99c6.522-1.871,12.317-4.951,12.166-9.427
				c-0.129-3.88-5.806-9.147-21.935-11.447c8.269,2.169,14.629,5.496,14.761,9.197c0.127,3.686-3.945,6.58-10.111,8.513
				c-3.539,1.108-7.846,1.828-19.112,2.068c-1.436-0.551-3.979-1.301-5.692-1.627c-1.761-0.334-4.223-0.604-6.703-0.637
				c0,0,2.758-8.061,11.693-18.542c8.203-9.622,14.986-13.699,20.5-15.852c0,0-1.18-0.239-2.869-0.239
				c-0.793,0-1.695,0.053-2.645,0.207c-3,0.489-6.766,1.857-13.056,7.021c-3.373,2.769-10.004,10.296-13.379,15.55
				c-3.751,5.838-5.275,9.965-6.104,12.051c-0.076,0.007-0.159,0.01-0.247,0.01c-1.376,0-4.195-0.733-7.232-2.195
				c-3.523-1.695-7.045-4.631-6.49-7.338c-1.19,2.381-0.61,6.048,2.829,8.574c2.036,1.498,5.687,3.662,10.1,4.421
				c-2.081,6.652-1.868,11.971,0.514,15.428c1.118,1.625,3.546,2.988,6.589,2.988c0.51,0,1.036-0.037,1.576-0.119
				C38.837,60.225,46.527,55.189,51.1,49.738z"/>
			<path fill="#FFFFFF" d="M82.166,74.541c-0.6-3.156-7.188-13.355-13.74-20.316c-1.811-1.922-5.902-5.604-10.273-8.406
				c3.992-0.325,7.685-0.938,10.619-1.778c8.908-2.558,13.533-6.391,13.375-11.089c-0.078-2.289-1.989-9.997-23.369-13.045
				c-0.077-0.011-0.159-0.017-0.235-0.017c-0.783,0-1.478,0.552-1.638,1.34c-0.174,0.867,0.357,1.721,1.214,1.945
				c9.233,2.423,13.44,5.583,13.516,7.642c0.089,2.551-3.17,5.051-8.94,6.86c-3.422,1.071-7.531,1.743-18.328,1.985
				c-1.495-0.547-3.901-1.257-5.665-1.592c-1.366-0.259-2.944-0.453-4.544-0.563c1.386-2.999,4.543-8.911,10.493-15.891
				c8.744-10.257,15.509-13.69,19.837-15.38c0.688-0.27,1.117-0.961,1.055-1.698c-0.063-0.738-0.605-1.346-1.33-1.493
				c-0.057-0.012-1.363-0.273-3.201-0.273c-1,0-1.98,0.077-2.912,0.229C55.1,3.487,51.11,4.746,44.25,10.376
				c-3.411,2.8-10.149,10.372-13.726,15.938c-3.243,5.047-4.876,8.883-5.803,11.205c-1.226-0.206-3.26-0.79-5.652-1.941
				c-3.422-1.648-5.873-4.063-5.579-5.498c0.169-0.821-0.298-1.641-1.089-1.914c-0.181-0.063-0.365-0.092-0.546-0.092
				c-0.618,0-1.204,0.344-1.494,0.923c-1.493,2.987-0.827,7.609,3.335,10.668c1.66,1.219,4.876,3.265,8.989,4.329
				c-1.661,6.318-1.241,11.52,1.237,15.119c1.576,2.289,4.627,3.713,7.964,3.713c0.604,0,1.217-0.049,1.826-0.141
				c5.362-0.81,12.811-5.398,17.8-10.881c1.961,0.991,3.762,2.038,5.365,3.116c3.971,2.675,7.094,5.146,10.775,8.537
				c3.393,3.117,7.074,7.08,11.594,12.465c0.324,0.392,0.799,0.599,1.279,0.599c0.242,0,0.485-0.054,0.715-0.162
				C81.928,76.035,82.307,75.289,82.166,74.541z M31.884,61.154c-3.043,0-5.471-1.361-6.589-2.986
				c-2.382-3.457-2.595-8.775-0.514-15.43c-4.413-0.76-8.063-2.922-10.1-4.42c-3.439-2.526-4.02-6.193-2.829-8.574
				c-0.555,2.707,2.967,5.643,6.49,7.338c3.037,1.462,5.856,2.195,7.232,2.195c0.088,0,0.171-0.003,0.247-0.01
				c0.829-2.086,2.354-6.213,6.104-12.051c3.375-5.254,10.006-12.781,13.379-15.55c6.292-5.163,10.055-6.531,13.055-7.021
				c0.949-0.154,1.852-0.207,2.646-0.207c1.688,0,2.867,0.239,2.867,0.239c-5.515,2.152-12.297,6.229-20.499,15.852
				C34.44,31.011,31.682,39.072,31.682,39.072c2.48,0.032,4.942,0.303,6.703,0.637c1.713,0.326,4.257,1.077,5.692,1.627
				c11.269-0.24,15.573-0.959,19.112-2.068c6.166-1.933,10.237-4.827,10.11-8.513c-0.131-3.701-6.491-7.028-14.76-9.197
				c16.129,2.3,21.806,7.567,21.935,11.447c0.151,4.476-5.644,7.556-12.166,9.427c-3.75,1.076-9.621,1.957-16.502,1.99
				c5.653,2.02,12.762,8.143,15.401,10.949c6.58,6.988,12.826,16.902,13.313,19.48c-4.688-5.588-8.383-9.533-11.742-12.623
				c-3.465-3.188-6.631-5.769-10.977-8.691c-2.047-1.377-4.334-2.656-6.707-3.799c-4.572,5.451-12.263,10.486-17.64,11.297
				C32.92,61.117,32.395,61.154,31.884,61.154z"/>
			<path fill="#FFFFFF" d="M29.615,43.943c0,0-0.673,2.141-0.771,5.305c-0.099,3.164,0.457,5.609,2.087,7.047
				c0.692,0.607,2.076,1.354,4.271,1.354c2.109,0,4.97-0.688,8.678-2.854c1.945-1.135,5.065-3.4,7.119-5.105
				c-4.034-1.934-8.306-3.465-12.043-4.403C36.578,44.689,32.778,44.125,29.615,43.943z M35.203,55.977
				c-1.95,0-2.917-0.717-3.167-0.938c-1.112-0.98-1.611-2.857-1.521-5.74c0.046-1.484,0.229-2.73,0.396-3.586
				c2.651,0.229,5.627,0.688,7.64,1.191c2.96,0.744,6.171,1.848,9.261,3.174c-1.716,1.295-3.552,2.561-4.771,3.271
				C40.052,55.092,37.416,55.977,35.203,55.977z"/>
		</g>
		<g>
			<path fill="#449722" d="M56.473,25.906c-3.315,0-6.017-2.699-6.017-6.018c0-3.317,2.698-6.017,6.017-6.017
				s6.019,2.699,6.019,6.017C62.49,23.207,59.791,25.906,56.473,25.906z"/>
		</g>
	</g>
</g>
</svg>
