<?xml version="1.0" encoding="utf-8"?>
<!-- Generator: Adobe Illustrator 16.0.0, SVG Export Plug-In . SVG Version: 6.00 Build 0)  -->
<!DOCTYPE svg PUBLIC "-//W3C//DTD SVG 1.1//EN" "http://www.w3.org/Graphics/SVG/1.1/DTD/svg11.dtd">
<svg version="1.1" id="Layer_1" xmlns="http://www.w3.org/2000/svg" xmlns:xlink="http://www.w3.org/1999/xlink" x="0px" y="0px"
	 width="102px" height="80px" viewBox="0 0 102 80" enable-background="new 0 0 102 80" xml:space="preserve">
<g>
	<path fill="#3B5998" d="M102,54.539C102,68.603,90.43,80,76.157,80H25.843C11.569,80,0,68.603,0,54.539V25.46
		C0,11.398,11.569,0,25.843,0h50.314C90.43,0,102,11.398,102,25.46V54.539z"/>
	<path id="f_1_" fill="#FFFFFF" d="M61.211,80V48.296h10.644l1.59-12.354H61.211v-7.891c0-3.576,0.994-6.014,6.122-6.014
		l6.547-0.003V10.983c-1.133-0.15-5.018-0.486-9.537-0.486c-9.433,0-15.891,5.759-15.891,16.331v9.113H37.784v12.354h10.668V80
		H61.211z"/>
</g>
</svg>
