<?xml version="1.0" encoding="utf-8"?>
<!-- Generator: Adobe Illustrator 16.0.0, SVG Export Plug-In . SVG Version: 6.00 Build 0)  -->
<!DOCTYPE svg PUBLIC "-//W3C//DTD SVG 1.1//EN" "http://www.w3.org/Graphics/SVG/1.1/DTD/svg11.dtd">
<svg version="1.1" id="Layer_1" xmlns="http://www.w3.org/2000/svg" xmlns:xlink="http://www.w3.org/1999/xlink" x="0px" y="0px"
	 width="102px" height="80px" viewBox="0 0 102 80" enable-background="new 0 0 102 80" xml:space="preserve">
<g>
	<path fill="#DD4B39" d="M102,54.539C102,68.602,90.429,80,76.156,80H25.842C11.569,80,0,68.602,0,54.539v-29.08
		C0,11.398,11.569,0,25.842,0h50.314C90.429,0,102,11.398,102,25.459V54.539z"/>
	<path fill="#FFFFFF" d="M55.491,34.249v-0.136c-0.026,0.044-0.057,0.091-0.087,0.136H55.491z"/>
	<g>
		<path fill="#FFFFFF" d="M75.668,29.935c-0.021,2.163-0.042,4.326-0.054,6.501c-2.175,0.01-4.333,0.023-6.498,0.043
			c0,2.165,0,4.315,0,6.468c2.165,0.021,4.338,0.041,6.498,0.064c0.023,2.161,0.023,4.325,0.045,6.487c2.161,0,4.313,0,6.477,0
			c0.012-2.162,0.021-4.326,0.042-6.497c2.176-0.023,4.34-0.034,6.501-0.055c0-2.152,0-4.316,0-6.468
			c-2.161-0.02-4.336-0.02-6.501-0.043c-0.021-2.164-0.03-4.338-0.042-6.501C79.972,29.935,77.82,29.935,75.668,29.935z"/>
		<path fill="#FFFFFF" d="M17.064,38.59c-0.75,9.581,5.554,18.984,14.457,22.375c8.867,3.413,20.238,1.086,25.9-6.879
			c3.738-5.033,4.543-11.51,4.106-17.596c-7.261-0.055-14.51-0.045-21.759-0.02c-0.01,2.583,0,5.17,0.012,7.759
			c4.337,0.139,8.684,0.075,13.019,0.139c-1.912,9.622-14.999,12.738-21.92,6.455c-7.121-5.507-6.782-17.595,0.617-22.713
			c5.176-4.132,12.532-3.109,17.704,0.466c2.034-1.879,3.938-3.889,5.772-5.977c-4.305-3.435-9.585-5.88-15.204-5.62
			C28.042,16.59,17.262,26.858,17.064,38.59z"/>
	</g>
</g>
</svg>
