<?xml version="1.0" encoding="utf-8"?>
<!-- Generator: Adobe Illustrator 20.1.0, SVG Export Plug-In . SVG Version: 6.00 Build 0)  -->
<svg version="1.1" id="Layer_1" xmlns="http://www.w3.org/2000/svg" xmlns:xlink="http://www.w3.org/1999/xlink" x="0px" y="0px"
	 viewBox="0 0 102 80" style="enable-background:new 0 0 102 80;" xml:space="preserve">
<style type="text/css">
	.st0{fill:#FFFFFF;}
</style>
<g>
	<path d="M102,54.5C102,68.6,90.4,80,76.2,80H25.8C11.6,80,0,68.6,0,54.5V25.5C0,11.4,11.6,0,25.8,0h50.3C90.4,0,102,11.4,102,25.5
		V54.5z"/>
</g>
<g>
	<path class="st0" d="M51,13.8c8.5,0,9.6,0,12.9,0.2c3.1,0.1,4.8,0.7,5.9,1.1c1.5,0.6,2.6,1.3,3.7,2.4c1.1,1.1,1.8,2.2,2.4,3.7
		c0.4,1.1,1,2.8,1.1,5.9c0.2,3.4,0.2,4.4,0.2,12.9c0,8.5,0,9.6-0.2,12.9c-0.1,3.1-0.7,4.8-1.1,5.9c-0.6,1.5-1.3,2.6-2.4,3.7
		c-1.1,1.1-2.2,1.8-3.7,2.4c-1.1,0.4-2.8,1-5.9,1.1c-3.4,0.2-4.4,0.2-12.9,0.2c-8.5,0-9.6,0-12.9-0.2c-3.1-0.1-4.8-0.7-5.9-1.1
		c-1.5-0.6-2.6-1.3-3.7-2.4c-1.1-1.1-1.8-2.2-2.4-3.7c-0.4-1.1-1-2.8-1.1-5.9c-0.2-3.4-0.2-4.4-0.2-12.9c0-8.5,0-9.6,0.2-12.9
		c0.1-3.1,0.7-4.8,1.1-5.9c0.6-1.5,1.3-2.6,2.4-3.7c1.1-1.1,2.2-1.8,3.7-2.4c1.1-0.4,2.8-1,5.9-1.1C41.4,13.8,42.5,13.8,51,13.8
		 M51,8c-8.7,0-9.8,0-13.2,0.2c-3.4,0.2-5.7,0.7-7.8,1.5c-2.1,0.8-3.9,1.9-5.7,3.7c-1.8,1.8-2.9,3.6-3.7,5.7c-0.8,2-1.3,4.4-1.5,7.8
		C19,30.2,19,31.3,19,40c0,8.7,0,9.8,0.2,13.2c0.2,3.4,0.7,5.7,1.5,7.8c0.8,2.1,1.9,3.9,3.7,5.7c1.8,1.8,3.6,2.9,5.7,3.7
		c2,0.8,4.4,1.3,7.8,1.5C41.2,72,42.3,72,51,72c8.7,0,9.8,0,13.2-0.2c3.4-0.2,5.7-0.7,7.8-1.5c2.1-0.8,3.9-1.9,5.7-3.7
		c1.8-1.8,2.9-3.6,3.7-5.7c0.8-2,1.3-4.4,1.5-7.8C83,49.8,83,48.7,83,40c0-8.7,0-9.8-0.2-13.2c-0.2-3.4-0.7-5.7-1.5-7.8
		c-0.8-2.1-1.9-3.9-3.7-5.7c-1.8-1.8-3.6-2.9-5.7-3.7c-2-0.8-4.4-1.3-7.8-1.5C60.8,8,59.7,8,51,8"/>
	<path class="st0" d="M51,23.6c-9.1,0-16.4,7.4-16.4,16.4c0,9.1,7.4,16.4,16.4,16.4c9.1,0,16.4-7.4,16.4-16.4
		C67.4,30.9,60.1,23.6,51,23.6 M51,50.7c-5.9,0-10.7-4.8-10.7-10.7c0-5.9,4.8-10.7,10.7-10.7c5.9,0,10.7,4.8,10.7,10.7
		C61.7,45.9,56.9,50.7,51,50.7"/>
	<path class="st0" d="M71.9,22.9c0,2.1-1.7,3.8-3.8,3.8c-2.1,0-3.8-1.7-3.8-3.8c0-2.1,1.7-3.8,3.8-3.8
		C70.2,19.1,71.9,20.8,71.9,22.9"/>
</g>
</svg>
