<?xml version="1.0" encoding="utf-8"?>
<!-- Generator: Adobe Illustrator 16.0.0, SVG Export Plug-In . SVG Version: 6.00 Build 0)  -->
<!DOCTYPE svg PUBLIC "-//W3C//DTD SVG 1.1//EN" "http://www.w3.org/Graphics/SVG/1.1/DTD/svg11.dtd">
<svg version="1.1" id="Layer_1" xmlns="http://www.w3.org/2000/svg" xmlns:xlink="http://www.w3.org/1999/xlink" x="0px" y="0px"
	 width="102px" height="80px" viewBox="0 0 102 80" enable-background="new 0 0 102 80" xml:space="preserve">
<g>
	<path fill="#0077B5" d="M102,54.539C102,68.602,90.429,80,76.157,80H25.842C11.569,80,0,68.602,0,54.539V25.46
		C0,11.398,11.569,0,25.842,0h50.315C90.429,0,102,11.398,102,25.46V54.539z"/>
	<g>
		<path fill="#FFFFFF" d="M54.146,34.647v-0.12c-0.024,0.039-0.053,0.081-0.08,0.12H54.146z"/>
		<rect x="24.831" y="29.469" fill="#FFFFFF" width="11.873" height="35.721"/>
		<path fill="#FFFFFF" d="M30.769,24.591h-0.079c-3.981,0-6.559-2.744-6.559-6.172c0-3.503,2.656-6.171,6.717-6.171
			s6.559,2.668,6.638,6.171C37.485,21.847,34.908,24.591,30.769,24.591z"/>
		<path fill="#FFFFFF" d="M79.514,65.189h-11.87V46.074c0-4.799-1.718-8.076-6.015-8.076c-3.279,0-5.23,2.21-6.092,4.344
			c-0.315,0.76-0.391,1.826-0.391,2.895v19.949H43.275c0,0,0.155-32.371,0-35.719h11.871v5.06c1.579-2.434,4.397-5.899,10.7-5.899
			c7.813,0,13.669,5.105,13.669,16.075v20.487H79.514z"/>
	</g>
</g>
</svg>
