<?xml version="1.0" encoding="utf-8"?>
<!-- Generator: Adobe Illustrator 16.0.0, SVG Export Plug-In . SVG Version: 6.00 Build 0)  -->
<!DOCTYPE svg PUBLIC "-//W3C//DTD SVG 1.1//EN" "http://www.w3.org/Graphics/SVG/1.1/DTD/svg11.dtd">
<svg version="1.1" id="Layer_1" xmlns="http://www.w3.org/2000/svg" xmlns:xlink="http://www.w3.org/1999/xlink" x="0px" y="0px"
	 width="102px" height="80px" viewBox="0 0 102 80" enable-background="new 0 0 102 80" xml:space="preserve">
<g>
	<path fill="#D22222" d="M102,54.54C102,68.602,90.43,80,76.157,80H25.843C11.57,80,0,68.602,0,54.54V25.46
		C0,11.399,11.57,0,25.843,0h50.314C90.43,0,102,11.399,102,25.46V54.54z"/>
	<path fill="#FFFFFF" d="M55.29,34.249v-0.135c-0.028,0.044-0.059,0.09-0.088,0.135H55.29z"/>
	<g>
		<path id="Triangle" fill="#D22222" d="M44.34,49.903l18.65-9.52l-18.65-9.586V49.903z"/>
		<g>
			<path id="The_Sharpness" opacity="0.3" fill-rule="evenodd" clip-rule="evenodd" fill="#420000" d="M44.34,30.797l16.356,10.76
				l2.294-1.174L44.34,30.797z"/>
			<g id="Lozenge">
				<g>
					<path fill="#FFFFFF" d="M84.822,26.404c0,0-0.675-4.686-2.744-6.75c-2.624-2.708-5.566-2.722-6.916-2.88
						c-9.659-0.688-24.147-0.688-24.147-0.688h-0.03c0,0-14.488,0-24.147,0.688c-1.35,0.159-4.291,0.172-6.916,2.88
						c-2.07,2.064-2.743,6.75-2.743,6.75s-0.69,5.503-0.69,11.006v5.159c0,5.502,0.69,11.005,0.69,11.005s0.673,4.686,2.743,6.75
						c2.625,2.708,6.074,2.623,7.61,2.907C33.054,63.752,51,63.914,51,63.914s14.503-0.021,24.162-0.709
						c1.35-0.159,4.292-0.172,6.916-2.88c2.069-2.064,2.744-6.75,2.744-6.75s0.689-5.503,0.689-11.005V37.41
						C85.512,31.907,84.822,26.404,84.822,26.404z M44.343,49.903L44.34,30.797l18.65,9.586L44.343,49.903z"/>
				</g>
			</g>
		</g>
	</g>
</g>
</svg>
