<?xml version="1.0" encoding="utf-8"?>
<!-- Generator: Adobe Illustrator 24.1.3, SVG Export Plug-In . SVG Version: 6.00 Build 0)  -->
<svg version="1.1" id="Layer_1" xmlns="http://www.w3.org/2000/svg" xmlns:xlink="http://www.w3.org/1999/xlink" x="0px" y="0px"
	 viewBox="0 0 609.6 52.4" style="enable-background:new 0 0 609.6 52.4;" xml:space="preserve">
<style type="text/css">
	.st0{fill:#FF0000;}
	.st1{fill:#00FF00;}
	.st2{fill:#0000FF;}
	.st3{font-family:'Michroma';}
	.st4{font-size:40.313px;}
	.st5{letter-spacing:2;}
	.st6{letter-spacing:3;}
	.st7{letter-spacing:1;}
	.st8{letter-spacing:4;}
	.st9{fill:url(#SVGID_1_);}
</style>
<g>
	<g>
		<path d="M73,1.8H30.1c-8.5-0.1-15.5,6.8-15.6,15.4c0,0,0,0.1,0,0.1v18.1c0,8.5,6.9,15.5,15.4,15.5c0,0,0,0,0,0l30.5,0
			C69,50.9,76,44.1,76,35.5c0,0,0-0.1,0-0.1v-3c0-8.6-7-15.5-15.5-15.5c0,0,0,0,0,0H30.1v9.8h30.4c1.5,0,3,0.6,4,1.7
			c1.1,1.1,1.7,2.5,1.6,4v3l0,0c0,1.5-0.6,3-1.6,4c-1.1,1.1-2.5,1.7-4,1.7H30.2c-1.5,0-3-0.6-4.1-1.7c-1.1-1.1-1.7-2.5-1.7-4V17.3
			l0,0c0-1.5,0.6-3,1.6-4c1.1-1.1,2.5-1.7,4-1.7h43V1.8"/>
		<path class="st0" d="M0,7.8c0-2.9,2.3-5.3,5.2-5.3c2.9,0,5.3,2.3,5.3,5.2c0,2.9-2.3,5.3-5.2,5.3c0,0,0,0,0,0C2.4,13,0,10.7,0,7.8
			C0,7.8,0,7.8,0,7.8"/>
		<path class="st1" d="M0,26.3c0-2.9,2.3-5.3,5.2-5.3c2.9,0,5.3,2.3,5.3,5.2c0,2.9-2.3,5.3-5.2,5.3c0,0,0,0,0,0
			C2.4,31.6,0,29.2,0,26.3C0,26.3,0,26.3,0,26.3"/>
		<path class="st2" d="M0,44.9c0-2.9,2.3-5.3,5.2-5.3c2.9,0,5.3,2.3,5.3,5.2c0,2.9-2.3,5.3-5.2,5.3c0,0,0,0,0,0
			C2.4,50.1,0,47.8,0,44.9"/>
	</g>
	<g>
		<text transform="matrix(1 0 0 1 93.536 32.6206)" class="st3 st4 st5">GS</text>
		<text transform="matrix(1 0 0 1 181.247 32.6206)" class="st3 st4 st6"> </text>
		<text transform="matrix(1 0 0 1 193.29 32.6206)" class="st3 st4 st7">L</text>
		<text transform="matrix(1 0 0 1 227.899 32.6206)" class="st3 st4 st5">i</text>
		<text transform="matrix(1 0 0 1 241.857 32.6206)" class="st3 st4 st8">g</text>
		<text transform="matrix(1 0 0 1 278.416 32.6206)" class="st3 st4 st7">ht</text>
		<text transform="matrix(1 0 0 1 340.241 32.6206)" class="st3 st4 st5">i</text>
		<text transform="matrix(1 0 0 1 354.321 32.6206)" class="st3 st4 st6">ng</text>
		<text transform="matrix(1 0 0 1 425.0551 32.6206)" class="st3 st4 st6"> </text>
		<text transform="matrix(1 0 0 1 437.098 32.6206)" class="st3 st4 st6">G</text>
		<text transform="matrix(1 0 0 1 483.498 32.6206)" class="st3 st4 st7">r</text>
		<text transform="matrix(1 0 0 1 510.265 32.6206)" class="st3 st4 st5">o</text>
		<text transform="matrix(1 0 0 1 544.542 32.6206)" class="st3 st4 st5">u</text>
		<text transform="matrix(1 0 0 1 578.8779 32.6206)" class="st3 st4 st5">p</text>
		
			<linearGradient id="SVGID_1_" gradientUnits="userSpaceOnUse" x1="96.427" y1="0.756" x2="608.088" y2="0.756" gradientTransform="matrix(1 0 0 -1 0 50.6931)">
			<stop  offset="0" style="stop-color:#FF0000"/>
			<stop  offset="0.5" style="stop-color:#00FF00"/>
			<stop  offset="1" style="stop-color:#0000FF"/>
		</linearGradient>
		<rect x="96.4" y="49" class="st9" width="511.7" height="1.9"/>
	</g>
</g>
</svg>
